<?xml version="1.0" encoding="utf-8"?>
<!-- Generator: Adobe Illustrator 23.0.0, SVG Export Plug-In . SVG Version: 6.00 Build 0)  -->
<svg version="1.1" id="레이어_1" xmlns="http://www.w3.org/2000/svg" xmlns:xlink="http://www.w3.org/1999/xlink" x="0px"
	 y="0px" width="807px" height="254px" viewBox="0 0 807 254" style="enable-background:new 0 0 807 254;" xml:space="preserve">
<g id="bar_1">
	<g>
		<path d="M8.4,31.9c1.4,0,3.1-0.3,4.9-0.7l0.4,4.1c-3.4,0.7-6,0.7-8,0.7H3.9V8.9h9.2v4H8.4V31.9z M19.4,31.9
			c1.7-0.1,3.6-0.3,5.8-0.8l0.4,4.1C22.1,36,19.3,36,16.8,36h-1.9V8.9h9.5v4h-5V31.9z M40.4,3.6v43.3h-4.7v-22h-4.3v20h-4.6V4.4h4.6
			v16.5h4.3V3.6H40.4z"/>
		<path d="M69.1,22.8v4.9h12.4v11H56.6v3.9h26v3.9H51.7V35.3h24.9v-3.7h-25v-3.9h12.6v-4.9H47.1v-3.9h28.6c0.8-4,0.9-7,0.9-9.6H52
			v-4h29.4v2.8c0,2.8,0,6.3-0.8,10.8h5.7v3.9C86.3,22.8,69.1,22.8,69.1,22.8z"/>
		<path d="M96.7,31.9c1.4,0,3.1-0.3,4.9-0.7l0.4,4.1C98.7,36,96.1,36,94,36h-1.8V8.9h9.2v4h-4.7V31.9z M107.7,31.9
			c1.7-0.1,3.6-0.3,5.8-0.8l0.4,4.1c-3.4,0.8-6.2,0.9-8.7,0.9h-1.9V8.9h9.5v4h-5v19H107.7z M128.7,3.6v43.3H124v-22h-4.3v20h-4.6
			V4.4h4.6v16.5h4.3V3.6H128.7z"/>
		<path d="M157.4,22.8v4.9h12.4v11h-24.9v3.9h26v3.9H140V35.3h24.9v-3.7h-25v-3.9h12.6v-4.9h-17.1v-3.9H164c0.8-4,0.9-7,0.9-9.6
			h-24.6v-4h29.4v2.8c0,2.8,0,6.3-0.8,10.8h5.7v3.9C174.6,22.8,157.4,22.8,157.4,22.8z"/>
		<path d="M198.5,31.9c1.4,0,3.1-0.3,4.9-0.7l0.4,4.1c-3.4,0.7-6,0.8-8.1,0.8H194V8.9h9.2v4h-4.7V31.9z M209.4,31.9
			c1.7-0.1,3.6-0.3,5.8-0.8l0.4,4.1c-3.4,0.8-6.2,0.9-8.7,0.9H205V8.9h9.5v4h-5v19H209.4z M230.5,3.6v43.3h-4.7v-22h-4.3v20H217V4.4
			h4.6v16.5h4.3V3.6H230.5z"/>
		<path d="M259.2,22.8v4.9h12.4v11h-24.9v3.9h26v3.9h-30.9V35.3h24.9v-3.7h-25v-3.9h12.6v-4.9h-17.1v-3.9h28.6c0.8-4,0.9-7,0.9-9.6
			h-24.6v-4h29.4v2.8c0,2.8,0,6.3-0.8,10.8h5.7v3.9C276.4,22.8,259.2,22.8,259.2,22.8z"/>
		<path d="M286.8,31.9c1.4,0,3.1-0.3,4.9-0.7l0.4,4.1c-3.4,0.7-6,0.8-8.1,0.8h-1.8V8.9h9.2v4h-4.7v19H286.8z M297.8,31.9
			c1.7-0.1,3.6-0.3,5.8-0.8l0.4,4.1c-3.4,0.8-6.2,0.9-8.7,0.9h-1.9V8.9h9.5v4h-5L297.8,31.9L297.8,31.9z M318.8,3.6v43.3h-4.7v-22
			h-4.3v20h-4.6V4.4h4.6v16.5h4.3V3.6H318.8z"/>
		<path d="M347.5,22.8v4.9h12.4v11H335v3.9h26v3.9h-30.9V35.3H355v-3.7h-25v-3.9h12.6v-4.9h-17.1v-3.9h28.6c0.8-4,0.9-7,0.9-9.6
			h-24.6v-4h29.4v2.8c0,2.8,0,6.3-0.8,10.8h5.7v3.9C364.7,22.8,347.5,22.8,347.5,22.8z"/>
		<path d="M422.3,37.7v4.1H383v-4.1h17.1V27.4h-12.3V6.9h29.7v4h-24.7v12.6h25.1v4h-12.8v10.2H422.3z"/>
		<path d="M466.5,37.8v4.1h-39.3v-4.1h17.1v-8.2h-12.2V6.9h29.7v4h-24.6v5.2h23.7V20h-23.7v5.7h25v3.9h-12.8v8.2H466.5z"/>
		<path d="M478.8,32.6c6.9,0,12.9-0.4,19.7-1.5l0.5,4c-7.4,1.3-13.9,1.5-21.6,1.5h-3.7V19.5h15.1v-8.1h-15.2v-4h20.2v16.1h-15.1v9.1
			H478.8z M507.1,3.5V47h-5V3.5H507.1z"/>
		<path d="M537.8,8.1c0,12.6-5.4,23.7-19.5,30.9l-2.7-3.8c10.6-5.4,16.3-13.1,17.3-23h-15.2v-4h20.1V8.1z M555.7,24.8h-6.6v22.1
			h-4.9V3.5h4.9v17.1h6.6V24.8z"/>
		<path d="M609.1,3.5V47h-5V23.8h-8.4c-0.6,8.4-5,13.6-10.9,13.6c-6.4,0-10.9-5.9-10.9-15.3c0-9.3,4.6-15.3,10.9-15.3
			c5.8,0,10.2,5,10.9,13h8.4V3.5H609.1z M591.1,22c0-6.7-2.5-10.8-6.3-10.8c-3.7,0-6.2,4.1-6.2,10.8c0,6.9,2.5,10.9,6.2,10.9
			S591.1,28.9,591.1,22z"/>
		<path d="M624.9,32.3c8.1,0,13.3-0.3,19.1-1.4l0.5,4.1c-6.3,1.2-11.9,1.4-20.9,1.4H620V7.6h20.6v4.1h-15.7L624.9,32.3L624.9,32.3z
			 M653,3.5V47h-5V3.5H653z"/>
		<path d="M677.1,14.2c0,8.1,4.1,15.9,10.8,19l-2.9,4c-4.9-2.4-8.4-7.2-10.3-13c-1.9,6.1-5.5,11.2-10.4,13.7l-3.1-3.9
			c6.8-3.3,11-11.7,11-19.8V7.1h5L677.1,14.2L677.1,14.2z M697.5,3.5V47h-5V21.8h-9.3v-4h9.3V3.5H697.5z"/>
		<path d="M745.9,26.6c-9,1.6-19.1,1.8-26.4,1.8l-0.6-3.9c3.1,0,6.8,0,10.7-0.1v-3.6c-5-0.7-8.4-3.7-8.4-7.9c0-4.9,4.4-8.1,10.8-8.1
			c6.3,0,10.7,3.2,10.7,8.1c0,4.1-3.2,7.2-8.2,7.9v3.4c3.7-0.2,7.4-0.5,10.9-1L745.9,26.6z M749.5,32.6c0,4.4,2.8,8.4,8.4,10.2
			l-2.4,3.6c-4.2-1.4-7-4.1-8.5-7.4c-1.4,3.4-4,6.3-8,7.8c-4-1.5-6.6-4.4-7.9-7.8c-1.5,3.3-4.3,6-8.4,7.4l-2.4-3.6
			c5.5-1.8,8.4-6,8.4-10.2v-0.9h4.8v0.9c0,3.5,1.7,7.2,5.5,9.5c3.8-2.4,5.6-6.1,5.6-9.5v-0.9h4.8v0.9H749.5z M732.1,17.5
			c3.6,0,6.1-1.8,6.1-4.5c0-2.8-2.4-4.5-6.1-4.5S726,10.2,726,13C725.9,15.7,728.4,17.5,732.1,17.5z M758.9,14.8v4.1h-6v11H748V3.6
			h4.9v11.1L758.9,14.8L758.9,14.8z"/>
		<path d="M769.6,32c5.9,0,12.1-0.5,18.7-1.9l0.6,4.1c-7.3,1.4-14.1,1.9-20.6,1.9h-3.6V7.8h4.9L769.6,32L769.6,32z M803.3,24.6h-6.6
			V47h-4.9V3.6h4.9v16.9h6.6V24.6z"/>
	</g>
	<g>
		<path d="M96.2,83.7c-5.6,1.2-10.7,1.5-20,1.5h-3.5V64.7H92v4H77.6V81c8.2,0,12.9-0.3,18.1-1.4L96.2,83.7z M82.2,99.7h24.2v4H77.2
			V89.4h5V99.7z M110.8,73.6v4.1h-6.1v14.9h-4.9V61.1h4.9v12.4L110.8,73.6L110.8,73.6z"/>
		<path d="M137.1,86v3.6c7.8,0.4,12.4,3,12.4,7.4c0,4.8-5.6,7.5-14.9,7.5c-9.3,0-14.9-2.7-14.9-7.5c0-4.4,4.6-7,12.5-7.4V86H115v-4
			h39.2v4H137.1z M124.6,66.7h-6.1v-4h32.1v4h-6.1v7.9h5.9v3.9h-31.6v-3.9h5.9L124.6,66.7L124.6,66.7z M134.5,93.3
			c-6.3,0-9.9,1.3-9.9,3.7c0,2.5,3.6,3.8,9.9,3.8c6.4,0,9.9-1.3,9.9-3.8C144.4,94.6,140.9,93.3,134.5,93.3z M139.5,66.7h-10v7.9h10
			V66.7z"/>
		<path d="M171.5,83.8c-6.6,0-11.5-4.2-11.5-10.2s4.9-10.2,11.5-10.2S183,67.6,183,73.6S178.1,83.8,171.5,83.8z M171.5,79.7
			c3.8,0,6.7-2.4,6.7-6.1s-2.8-6.1-6.7-6.1s-6.7,2.4-6.7,6.1C164.8,77.2,167.6,79.7,171.5,79.7z M195.6,100.1v3.9h-30.1v-3.9h6v-8.8
			h-5.6v-4h29.2v4h-5.5v8.8H195.6z M176.4,100.1h8.3v-8.8h-8.3V100.1z M194.9,85.1h-5V61.2h5V85.1z"/>
		<path d="M256,79.5v4h-39.1v-4h15.3v-7.4h5v7.4H256z M245,76.9c1-4.2,1.2-7.3,1.2-10.1h-24.8v-4h29.8v3c0,3,0,6.8-1.2,11.5
			L245,76.9z M246.1,86.7h4.9V104h-29.3V86.7h4.9v4.8H246v-4.8H246.1z M246.1,95.2h-19.4v4.8h19.4V95.2z"/>
		<path d="M284.2,62.2h4.7v40.2h-4.7v-20h-8c-2.5,5-6.7,9.4-12.7,13l-2.8-3.5c9-5.4,13.3-12.5,14-21.4h-12v-4h16.8
			c0,4.2-0.6,8.2-1.8,11.9h6.4V62.2H284.2z M298,61.2v43.3h-4.8V61.2H298z"/>
		<path d="M340.6,82.9v3.6h12.2v10.3h-24.7v3.6H354v3.8h-30.8V93.3H348v-3.1h-24.8v-3.7h12.4v-3.6h-17.1V79h39.3v3.9H340.6z
			 M352.7,75.9h-29.2V62.5h29.2V75.9z M347.8,66.4h-19.4V72h19.4V66.4z"/>
		<path d="M402,82.8v4h-39.2v-4H402z M372.5,99.7h25.3v4h-30.3V90.9h4.9v8.8H372.5z M397.5,78.7h-29.9V62.9h29.6v4h-24.7v7.7h25
			V78.7z"/>
		<path d="M443.3,86.3c-4.8-1.7-8.3-5.1-10.2-9.4c-1.9,4.8-5.5,8.4-10.6,10.3l-2.7-3.8c7-2.4,10.7-8.2,10.7-14.5v-5h5V69
			c0,5.8,3.7,11.2,10.3,13.5L443.3,86.3z M431.7,99.7h24.1v4h-29.1V90h4.9v9.7H431.7z M460.3,74.1v4.1h-6.1v14.9h-4.9v-32h4.9v13
			H460.3z"/>
		<path d="M503.6,78v3.9h-39.1V78h15.4v-6.9h5V78H503.6z M474,100.2h26v3.9h-30.9V92.8H494v-3.6h-25v-3.9h29.9v10.9H474V100.2z
			 M493.1,75.4c0.6-3.6,0.8-6.3,0.8-8.6H469v-4h29.8v2.7c0,2.7,0,6-0.8,10.3L493.1,75.4z"/>
		<path d="M534.9,85.6c-3.2-1.7-5.2-4.6-6.3-7.9c-1,3.3-2.7,6.4-5.9,8.3c-3.1-1.9-4.8-5-5.8-8.3c-1.2,3.3-3.2,6.1-6.4,7.8l-2.5-3.6
			c4.9-2.6,6.6-8.1,6.6-12.6v-1.2h-5.1v-4H522v4h-2.7v1.2c0,3.3,0.7,7.7,3.5,10.9c2.7-3.2,3.4-7.6,3.4-10.9v-1.2h-2.6v-4h12.1v4
			h-4.8v1.2c0,4.6,1.7,10,6.6,12.6L534.9,85.6z M514,89.1h29.5v15.5h-4.9V93.1H514V89.1z M548.5,76.2h-5v11h-4.9v-26h4.9v10.9h5
			V76.2z"/>
		<path d="M576.4,62h4.6v40.5h-4.6V81.7h-4.6c-0.4,8.4-4,13.6-9.3,13.6c-5.6,0-9.3-5.9-9.3-15.4s3.7-15.4,9.3-15.4
			c5.2,0,8.7,4.9,9.2,13.1h4.7L576.4,62L576.4,62z M567.3,79.9c0-6.9-1.8-10.7-4.8-10.7s-4.8,3.8-4.8,10.7c0,6.9,1.8,10.8,4.8,10.8
			C565.5,90.7,567.3,86.8,567.3,79.9z M589.8,61.2v43.3h-4.7V61.2H589.8z"/>
		<path d="M612.6,71.8c0,8.1,4.1,15.9,10.8,19l-2.9,4c-4.9-2.4-8.4-7.2-10.3-13c-1.9,6.1-5.5,11.2-10.4,13.7l-3.1-3.9
			c6.8-3.3,11-11.7,11-19.8v-7.2h5L612.6,71.8L612.6,71.8z M632.9,61.1v43.5h-5V79.4h-9.3v-4h9.3V61.1H632.9z"/>
		<path d="M681.4,84.2c-9,1.6-19.1,1.8-26.4,1.8l-0.6-3.9c3.1,0,6.8,0,10.7-0.1v-3.6c-5-0.7-8.4-3.7-8.4-7.9c0-4.9,4.4-8.1,10.8-8.1
			c6.3,0,10.7,3.2,10.7,8.1c0,4.1-3.2,7.2-8.2,7.9v3.4c3.7-0.2,7.4-0.5,10.9-1L681.4,84.2z M685,90.2c0,4.4,2.8,8.4,8.4,10.2
			L691,104c-4.2-1.4-7-4.1-8.5-7.4c-1.4,3.4-4,6.3-8,7.8c-4-1.5-6.6-4.4-7.9-7.8c-1.5,3.3-4.3,6-8.4,7.4l-2.4-3.6
			c5.5-1.8,8.4-6,8.4-10.2v-0.9h4.8v0.9c0,3.5,1.7,7.2,5.5,9.5c3.8-2.4,5.6-6.1,5.6-9.5v-0.9h4.8v0.9H685z M667.5,75.1
			c3.6,0,6.1-1.8,6.1-4.5c0-2.8-2.4-4.5-6.1-4.5s-6.1,1.7-6.1,4.5C661.4,73.3,663.9,75.1,667.5,75.1z M694.4,72.4v4.1h-6v11h-4.9
			V61.2h4.9v11.1L694.4,72.4L694.4,72.4z"/>
		<path d="M714.7,73.7c0,7.2,4.5,14.7,11.2,17.6l-2.7,3.9c-5-2.2-8.9-6.9-10.9-12.5c-1.9,6-5.8,11.2-10.9,13.6l-2.8-3.9
			c6.7-3.1,11.2-11.2,11.2-18.6v-4.1H700v-4.1h24.3v4.1h-9.6V73.7z M734.4,61.2v43.3h-5V61.2H734.4z"/>
	</g>
	<g>
		<path d="M8.4,177.1c1.4,0,3.1-0.3,4.9-0.7l0.4,4.1c-3.4,0.7-6,0.8-8.1,0.8H3.9v-27.1h9.2v4H8.4V177.1z M19.4,177.1
			c1.7-0.1,3.6-0.3,5.8-0.8l0.4,4.1c-3.4,0.8-6.2,0.9-8.7,0.9H15v-27.1h9.5v4h-5v18.9H19.4z M40.4,148.8v43.3h-4.7v-22h-4.3v20h-4.6
			v-40.5h4.6v16.5h4.3v-17.3H40.4z"/>
		<path d="M69.1,168v4.9h12.4v11H56.6v3.9h26v3.9H51.7v-11.2h24.9v-3.7h-25v-3.9h12.6V168H47.1v-3.9h28.6c0.8-4,0.9-7,0.9-9.6H52
			v-3.9h29.4v2.8c0,2.8,0,6.3-0.8,10.8h5.7v3.9H69.1V168z"/>
		<path d="M96.7,177.1c1.4,0,3.1-0.3,4.9-0.7l0.4,4.1c-3.4,0.7-6,0.8-8.1,0.8h-1.8v-27.1h9.2v4h-4.7L96.7,177.1L96.7,177.1z
			 M107.7,177.1c1.7-0.1,3.6-0.3,5.8-0.8l0.4,4.1c-3.4,0.8-6.2,0.9-8.7,0.9h-1.9v-27.1h9.5v4h-5v18.9H107.7z M128.7,148.8v43.3H124
			v-22h-4.3v20h-4.6v-40.5h4.6v16.5h4.3v-17.3H128.7z"/>
		<path d="M157.4,168v4.9h12.4v11h-24.9v3.9h26v3.9H140v-11.2h24.9v-3.7h-25v-3.9h12.6V168h-17.1v-3.9H164c0.8-4,0.9-7,0.9-9.6
			h-24.6v-3.9h29.4v2.8c0,2.8,0,6.3-0.8,10.8h5.7v3.9h-17.2V168z"/>
		<path d="M198.5,177.1c1.4,0,3.1-0.3,4.9-0.7l0.4,4.1c-3.4,0.7-6,0.8-8.1,0.8H194v-27.1h9.2v4h-4.7V177.1z M209.4,177.1
			c1.7-0.1,3.6-0.3,5.8-0.8l0.4,4.1c-3.4,0.8-6.2,0.9-8.7,0.9H205v-27.1h9.5v4h-5v18.9H209.4z M230.5,148.8v43.3h-4.7v-22h-4.3v20
			H217v-40.5h4.6v16.5h4.3v-17.3H230.5z"/>
		<path d="M259.2,168v4.9h12.4v11h-24.9v3.9h26v3.9h-30.9v-11.2h24.9v-3.7h-25v-3.9h12.6V168h-17.1v-3.9h28.6c0.8-4,0.9-7,0.9-9.6
			h-24.6v-3.9h29.4v2.8c0,2.8,0,6.3-0.8,10.8h5.7v3.9h-17.2V168z"/>
		<path d="M286.8,177.1c1.4,0,3.1-0.3,4.9-0.7l0.4,4.1c-3.4,0.7-6,0.8-8.1,0.8h-1.8v-27.1h9.2v4h-4.7v18.9H286.8z M297.8,177.1
			c1.7-0.1,3.6-0.3,5.8-0.8l0.4,4.1c-3.4,0.8-6.2,0.9-8.7,0.9h-1.9v-27.1h9.5v4h-5L297.8,177.1L297.8,177.1z M318.8,148.8v43.3h-4.7
			v-22h-4.3v20h-4.6v-40.5h4.6v16.5h4.3v-17.3H318.8z"/>
		<path d="M347.5,168v4.9h12.4v11H335v3.9h26v3.9h-30.9v-11.2H355v-3.7h-25v-3.9h12.6V168h-17.1v-3.9h28.6c0.8-4,0.9-7,0.9-9.6
			h-24.6v-3.9h29.4v2.8c0,2.8,0,6.3-0.8,10.8h5.7v3.9h-17.2V168z"/>
		<path d="M422.3,182.9v4.1H383v-4.1h17.1v-10.2h-12.3v-20.6h29.7v4h-24.7v12.6h25.1v4h-12.8v10.2H422.3z"/>
		<path d="M466.5,183v4.1h-39.3V183h17.1v-8.2h-12.2V152h29.7v4h-24.6v5.2h23.7v3.9h-23.7v5.7h25v3.9h-12.8v8.2h17.1V183z"/>
		<path d="M478.8,177.8c6.9,0,12.9-0.4,19.7-1.5l0.5,4c-7.4,1.3-13.9,1.5-21.6,1.5h-3.7v-17.2h15.1v-8.1h-15.2v-4h20.2v16.1h-15.1
			v9.2H478.8z M507.1,148.7v43.5h-5v-43.5H507.1z"/>
		<path d="M537.8,153.3c0,12.6-5.4,23.7-19.5,30.9l-2.7-3.8c10.6-5.4,16.3-13.1,17.3-23h-15.2v-4L537.8,153.3L537.8,153.3z
			 M555.7,170h-6.6v22.1h-4.9v-43.3h4.9v17.1h6.6V170z"/>
		<path d="M609.1,148.7v43.5h-5V169h-8.4c-0.6,8.4-5,13.6-10.9,13.6c-6.4,0-10.9-5.9-10.9-15.3c0-9.3,4.6-15.3,10.9-15.3
			c5.8,0,10.2,5,10.9,13h8.4v-16.2h5V148.7z M591.1,167.2c0-6.7-2.5-10.8-6.3-10.8c-3.7,0-6.2,4.1-6.2,10.8c0,6.9,2.5,10.9,6.2,10.9
			C588.5,178.1,591.1,174.1,591.1,167.2z"/>
		<path d="M624.9,177.5c8.1,0,13.3-0.3,19.1-1.4l0.5,4.1c-6.3,1.2-11.9,1.4-20.9,1.4H620v-28.9h20.6v4.1h-15.7L624.9,177.5
			L624.9,177.5z M653,148.7v43.5h-5v-43.5H653z"/>
		<path d="M677.1,159.4c0,8.1,4.1,15.9,10.8,19l-2.9,4c-4.9-2.4-8.4-7.2-10.3-13c-1.9,6.1-5.5,11.2-10.4,13.7l-3.1-3.9
			c6.8-3.3,11-11.7,11-19.8v-7.2h5L677.1,159.4L677.1,159.4z M697.5,148.7v43.5h-5V167h-9.3v-4h9.3v-14.3H697.5z"/>
		<path d="M745.9,171.8c-9,1.6-19.1,1.8-26.4,1.8l-0.6-3.9c3.1,0,6.8,0,10.7-0.1V166c-5-0.7-8.4-3.7-8.4-7.9c0-4.9,4.4-8.1,10.8-8.1
			c6.3,0,10.7,3.2,10.7,8.1c0,4.1-3.2,7.2-8.2,7.9v3.4c3.7-0.2,7.4-0.5,10.9-1L745.9,171.8z M749.5,177.8c0,4.4,2.8,8.4,8.4,10.2
			l-2.4,3.6c-4.2-1.4-7-4.1-8.5-7.4c-1.4,3.4-4,6.3-8,7.8c-4-1.5-6.6-4.4-7.9-7.8c-1.5,3.3-4.3,6-8.4,7.4l-2.4-3.6
			c5.5-1.8,8.4-6,8.4-10.2v-0.9h4.8v0.9c0,3.5,1.7,7.2,5.5,9.5c3.8-2.4,5.6-6.1,5.6-9.5v-0.9h4.8v0.9H749.5z M732.1,162.7
			c3.6,0,6.1-1.8,6.1-4.5c0-2.8-2.4-4.5-6.1-4.5s-6.1,1.7-6.1,4.5C725.9,160.9,728.4,162.7,732.1,162.7z M758.9,160v4.1h-6v11H748
			v-26.2h4.9V160H758.9z"/>
		<path d="M769.6,177.2c5.9,0,12.1-0.5,18.7-1.9l0.6,4.1c-7.3,1.4-14.1,1.9-20.6,1.9h-3.6V153h4.9L769.6,177.2L769.6,177.2z
			 M803.3,169.8h-6.6v22.4h-4.9v-43.3h4.9v16.9h6.6V169.8z"/>
	</g>
	<g>
		<path d="M87.8,209.3c0,11.2-7.7,18.5-20.4,21.6l-2-3.9c10.4-2.3,16.3-7.4,17.1-13.7H67.6v-4L87.8,209.3L87.8,209.3z M101.4,245.1
			v3.9H71.3v-3.9h6V236h-5.5v-3.9h29.1v3.9h-5.5v9.1H101.4z M82.2,245.1h8.4V236h-8.4V245.1z M100.3,229.9h-4.9v-23.6h4.9V229.9z"/>
		<path d="M148,228.9v4h-39.2v-4H148z M112.9,216.5c0-5.5,6.1-8.8,15.5-8.8s15.5,3.3,15.5,8.8s-6.1,8.8-15.5,8.8
			S112.9,222,112.9,216.5z M118.7,244.9h24.9v4h-29.9v-12.6h5C118.7,236.3,118.7,244.9,118.7,244.9z M118,216.5
			c0,3.1,4,4.8,10.4,4.8c6.3,0,10.3-1.8,10.3-4.8s-4-4.8-10.3-4.8C122,211.7,118,213.5,118,216.5z"/>
		<path d="M189.4,231.5c-4.8-1.7-8.3-5.1-10.2-9.4c-1.9,4.8-5.5,8.4-10.6,10.3l-2.7-3.8c7-2.4,10.7-8.2,10.7-14.5v-5h5v5.1
			c0,5.8,3.7,11.2,10.3,13.5L189.4,231.5z M177.8,244.9H202v4h-29.1v-13.7h4.9L177.8,244.9L177.8,244.9z M206.4,219.3v4.1h-6.1v14.9
			h-4.9v-32h4.9v13H206.4z"/>
		<path d="M249.7,223.2v3.9h-39.1v-3.9H226v-6.9h5v6.9H249.7z M220.1,245.4h26v3.9h-30.9V238H240v-3.6h-25v-3.9h30v10.9h-24.9V245.4
			z M239.2,220.6c0.6-3.6,0.8-6.3,0.8-8.6h-24.8v-4H245v2.7c0,2.7,0,6-0.8,10.3L239.2,220.6z"/>
		<path d="M307.3,227.6v4h-39.2v-4h17.1v-5.8h4.9v5.8H307.3z M270.1,220.3c8-0.8,13.5-4.2,14.3-8h-12.6v-4h32v4h-12.7
			c0.7,3.8,6.2,7.2,14.3,8l-1.8,3.8c-7.6-0.8-13.6-3.9-15.9-8.4c-2.4,4.5-8.3,7.5-15.9,8.4L270.1,220.3z M302.6,242.2
			c0,4.8-5.6,7.6-14.9,7.6s-14.9-2.7-14.9-7.6c0-4.8,5.6-7.6,14.9-7.6C297,234.6,302.6,237.3,302.6,242.2z M297.6,242.2
			c0-2.5-3.6-3.8-9.9-3.8c-6.4,0-9.9,1.3-9.9,3.8s3.5,3.8,9.9,3.8C294,245.9,297.6,244.7,297.6,242.2z"/>
		<path d="M351.6,240.3v4.1h-39.3v-4.1h16.9v-10.1h4.9v10.1H351.6z M347.8,231c-7.1-1.4-13.2-5.7-16-11.5c-2.9,5.8-9,10.1-16.1,11.5
			l-2.1-4.1c8.6-1.4,15.6-7.9,15.6-14.6V209h5.2v3.3c0,6.7,7,13.2,15.5,14.6L347.8,231z"/>
		<path d="M363.9,235.4c6.9,0,12.9-0.4,19.7-1.5l0.5,4c-7.4,1.3-13.9,1.5-21.6,1.5h-3.7v-17.2h15.1v-8.1h-15.2v-4H379v16.1h-15.1
			V235.4z M392.2,206.3v43.5h-5v-43.5H392.2z"/>
		<path d="M453.3,226.4v4h-39.2v-4H453.3z M423.8,245.2H449v4h-30.1v-14.9h29.8v4h-24.8v6.9H423.8z M448.9,222.5H419v-14.8h29.4v4
			H424v6.8h24.9V222.5z"/>
		<path d="M497.4,240v4.1h-39.2V240h14.6v-15.3h5V240H497.4z M488.2,214.5h-25.9v-4h30.9v4.3c0,5.4,0,11.4-1.7,20.4l-5-0.5
			c1.7-8.5,1.7-14.6,1.7-19.8V214.5z"/>
		<path d="M516.7,219c0-6,4.9-10.2,11.5-10.2s11.5,4.2,11.5,10.2s-4.8,10.2-11.5,10.2C521.6,229.2,516.7,225.1,516.7,219z
			 M546.9,234.9c0,4.5,2.8,8.8,8.4,10.7l-2.4,3.6c-4.2-1.5-7-4.3-8.5-7.8c-1.4,3.4-4,6.5-7.9,8.2c-4.1-1.6-6.6-4.6-8-8.1
			c-1.6,3.4-4.4,6.2-8.4,7.7l-2.4-3.6c5.5-2,8.4-6.4,8.4-10.7V233h4.8v1.9c0,3.6,1.7,7.5,5.5,9.9c3.8-2.6,5.7-6.7,5.7-9.9V233h4.8
			L546.9,234.9L546.9,234.9z M521.5,219c0,3.7,2.8,6.1,6.7,6.1c3.8,0,6.7-2.4,6.7-6.1c0-3.7-2.8-6.1-6.7-6.1S521.5,215.3,521.5,219z
			 M551.6,231.1h-4.9v-24.6h4.9V231.1z"/>
		<path d="M566.7,235c7,0,12.3-0.3,18.3-1.4l0.5,4.1c-6.6,1.2-12.4,1.4-20.3,1.4h-3.6v-28.7h20.2v4h-15.2L566.7,235L566.7,235z
			 M600.3,227.1h-6.8v22.7h-4.9v-43.4h4.9V223h6.8V227.1z"/>
		<path d="M626.4,210.9c0,12.6-5.4,23.7-19.5,30.9l-2.7-3.8c10.6-5.4,16.3-13.1,17.3-23h-15.2v-4L626.4,210.9L626.4,210.9z
			 M644.3,227.6h-6.6v22.1h-4.9v-43.3h4.9v17.1h6.6V227.6z"/>
		<path d="M688.6,229.4c-9,1.6-19.1,1.8-26.4,1.8l-0.6-3.9c3.1,0,6.8,0,10.7-0.1v-3.6c-5-0.7-8.4-3.7-8.4-7.9
			c0-4.9,4.4-8.1,10.8-8.1s10.7,3.2,10.7,8.1c0,4.1-3.2,7.2-8.2,7.9v3.4c3.7-0.2,7.4-0.5,10.9-1L688.6,229.4z M692.2,235.4
			c0,4.4,2.8,8.4,8.4,10.2l-2.4,3.6c-4.2-1.4-7-4.1-8.5-7.4c-1.4,3.4-4,6.3-8,7.8c-4-1.5-6.6-4.4-7.9-7.8c-1.5,3.3-4.3,6-8.4,7.4
			l-2.4-3.6c5.5-1.8,8.4-6,8.4-10.2v-0.9h4.8v0.9c0,3.5,1.7,7.2,5.5,9.5c3.8-2.4,5.6-6.1,5.6-9.5v-0.9h4.8v0.9H692.2z M674.8,220.3
			c3.6,0,6.1-1.8,6.1-4.5c0-2.8-2.4-4.5-6.1-4.5s-6.1,1.7-6.1,4.5C668.6,218.5,671.1,220.3,674.8,220.3z M701.7,217.6v4.1h-6v11
			h-4.9v-26.2h4.9v11.1L701.7,217.6L701.7,217.6z"/>
		<path d="M721.9,218.9c0,7.2,4.5,14.7,11.2,17.6l-2.7,3.9c-5-2.2-8.9-6.9-10.9-12.5c-1.9,6-5.8,11.2-10.9,13.6l-2.8-3.9
			c6.7-3.1,11.2-11.2,11.2-18.6v-4.1h-9.7v-4.1h24.3v4.1H722L721.9,218.9L721.9,218.9z M741.6,206.4v43.3h-5v-43.3H741.6z"/>
	</g>
</g>
</svg>
