<?xml version="1.0" encoding="utf-8"?>
<!-- Generator: Adobe Illustrator 23.0.0, SVG Export Plug-In . SVG Version: 6.00 Build 0)  -->
<svg version="1.1" id="레이어_1" xmlns="http://www.w3.org/2000/svg" xmlns:xlink="http://www.w3.org/1999/xlink" x="0px"
	 y="0px" width="807px" height="111px" viewBox="0 0 807 111" style="enable-background:new 0 0 807 111;" xml:space="preserve">
<g id="bar_2">
	<g>
		<path d="M8.4,33.3c1.4,0,3.1-0.3,4.9-0.7l0.4,4.1c-3.4,0.7-6,0.8-8.1,0.8H3.9V10.4h9.2v4H8.4V33.3z M19.4,33.3
			c1.7-0.1,3.6-0.3,5.8-0.8l0.4,4.1c-3.4,0.8-6.2,0.9-8.7,0.9H15V10.4h9.5v4h-5v18.9H19.4z M40.4,5v43.3h-4.7v-22h-4.3v20h-4.6V5.8
			h4.6v16.5h4.3V5H40.4z"/>
		<path d="M69.1,24.2v4.9h12.4v11H56.6V44h26v3.9H51.7V36.7h24.9V33h-25v-3.9h12.6v-4.9H47.1v-3.9h28.6c0.8-4,0.9-7,0.9-9.6H52V6.8
			h29.4v2.8c0,2.8,0,6.3-0.8,10.8h5.7v3.9L69.1,24.2L69.1,24.2z"/>
		<path d="M96.7,33.3c1.4,0,3.1-0.3,4.9-0.7l0.4,4.1c-3.4,0.7-6,0.8-8.1,0.8h-1.8V10.4h9.2v4h-4.7L96.7,33.3L96.7,33.3z M107.7,33.3
			c1.7-0.1,3.6-0.3,5.8-0.8l0.4,4.1c-3.4,0.8-6.2,0.9-8.7,0.9h-1.9V10.4h9.5v4h-5v18.9H107.7z M128.7,5v43.3H124v-22h-4.3v20h-4.6
			V5.8h4.6v16.5h4.3V5H128.7z"/>
		<path d="M157.4,24.2v4.9h12.4v11h-24.9V44h26v3.9H140V36.7h24.9V33h-25v-3.9h12.6v-4.9h-17.1v-3.9H164c0.8-4,0.9-7,0.9-9.6h-24.6
			V6.8h29.4v2.8c0,2.8,0,6.3-0.8,10.8h5.7v3.9L157.4,24.2L157.4,24.2z"/>
		<path d="M198.5,33.3c1.4,0,3.1-0.3,4.9-0.7l0.4,4.1c-3.4,0.7-6,0.8-8.1,0.8H194V10.4h9.2v4h-4.7V33.3z M209.4,33.3
			c1.7-0.1,3.6-0.3,5.8-0.8l0.4,4.1c-3.4,0.8-6.2,0.9-8.7,0.9H205V10.4h9.5v4h-5v18.9H209.4z M230.5,5v43.3h-4.7v-22h-4.3v20H217
			V5.8h4.6v16.5h4.3V5H230.5z"/>
		<path d="M259.2,24.2v4.9h12.4v11h-24.9V44h26v3.9h-30.9V36.7h24.9V33h-25v-3.9h12.6v-4.9h-17.1v-3.9h28.6c0.8-4,0.9-7,0.9-9.6
			h-24.6V6.8h29.4v2.8c0,2.8,0,6.3-0.8,10.8h5.7v3.9L259.2,24.2L259.2,24.2z"/>
		<path d="M286.8,33.3c1.4,0,3.1-0.3,4.9-0.7l0.4,4.1c-3.4,0.7-6,0.8-8.1,0.8h-1.8V10.4h9.2v4h-4.7v18.9H286.8z M297.8,33.3
			c1.7-0.1,3.6-0.3,5.8-0.8l0.4,4.1c-3.4,0.8-6.2,0.9-8.7,0.9h-1.9V10.4h9.5v4h-5L297.8,33.3L297.8,33.3z M318.8,5v43.3h-4.7v-22
			h-4.3v20h-4.6V5.8h4.6v16.5h4.3V5H318.8z"/>
		<path d="M347.5,24.2v4.9h12.4v11H335V44h26v3.9h-30.9V36.7H355V33h-25v-3.9h12.6v-4.9h-17.1v-3.9h28.6c0.8-4,0.9-7,0.9-9.6h-24.6
			V6.8h29.4v2.8c0,2.8,0,6.3-0.8,10.8h5.7v3.9L347.5,24.2L347.5,24.2z"/>
		<path d="M422.3,39.1v4.1H383v-4.1h17.1V28.9h-12.3V8.3h29.7v4h-24.7v12.6h25.1v4h-12.8v10.2H422.3z"/>
		<path d="M466.5,39.2v4.1h-39.3v-4.1h17.1V31h-12.2V8.2h29.7v4h-24.6v5.2h23.7v3.9h-23.7V27h25v3.9h-12.8v8.2L466.5,39.2
			L466.5,39.2z"/>
		<path d="M478.8,34c6.9,0,12.9-0.4,19.7-1.5l0.5,4c-7.4,1.3-13.9,1.5-21.6,1.5h-3.7V20.8h15.1v-8.1h-15.2v-4h20.2v16.1h-15.1V34
			H478.8z M507.1,4.9v43.5h-5V4.9H507.1z"/>
		<path d="M537.8,9.5c0,12.6-5.4,23.7-19.5,30.9l-2.7-3.8c10.6-5.4,16.3-13.1,17.3-23h-15.2v-4h20.1V9.5z M555.7,26.2h-6.6v22.1
			h-4.9V5h4.9v17.1h6.6V26.2z"/>
		<path d="M609.1,4.9v43.5h-5V25.1h-8.4c-0.6,8.4-5,13.6-10.9,13.6c-6.4,0-10.9-5.9-10.9-15.3c0-9.3,4.6-15.3,10.9-15.3
			c5.8,0,10.2,5,10.9,13h8.4V4.9L609.1,4.9L609.1,4.9z M591.1,23.4c0-6.7-2.5-10.8-6.3-10.8c-3.7,0-6.2,4.1-6.2,10.8
			c0,6.9,2.5,10.9,6.2,10.9S591.1,30.3,591.1,23.4z"/>
		<path d="M624.9,33.7c8.1,0,13.3-0.3,19.1-1.4l0.5,4.1c-6.3,1.2-11.9,1.4-20.9,1.4H620V9h20.6v4.1h-15.7L624.9,33.7L624.9,33.7z
			 M653,4.9v43.5h-5V4.9H653z"/>
		<path d="M677.1,15.6c0,8.1,4.1,15.9,10.8,19l-2.9,4c-4.9-2.4-8.4-7.2-10.3-13c-1.9,6.1-5.5,11.2-10.4,13.7l-3.1-3.9
			c6.8-3.3,11-11.7,11-19.8V8.4h5L677.1,15.6L677.1,15.6z M697.5,4.9v43.5h-5V23.2h-9.3v-4h9.3V4.9H697.5z"/>
		<path d="M745.9,28c-9,1.6-19.1,1.8-26.4,1.8L719,26c3.1,0,6.8,0,10.7-0.1v-3.6c-5-0.7-8.4-3.7-8.4-7.9c0-4.9,4.4-8.1,10.8-8.1
			c6.3,0,10.7,3.2,10.7,8.1c0,4.1-3.2,7.2-8.2,7.9v3.4c3.7-0.2,7.4-0.5,10.9-1L745.9,28z M749.5,34c0,4.4,2.8,8.4,8.4,10.2l-2.4,3.6
			c-4.2-1.4-7-4.1-8.5-7.4c-1.4,3.4-4,6.3-8,7.8c-4-1.5-6.6-4.4-7.9-7.8c-1.5,3.3-4.3,6-8.4,7.4l-2.4-3.6c5.5-1.8,8.4-6,8.4-10.2
			v-0.9h4.8V34c0,3.5,1.7,7.2,5.5,9.5c3.8-2.4,5.6-6.1,5.6-9.5v-0.9h4.8V34H749.5z M732.1,18.9c3.6,0,6.1-1.8,6.1-4.5
			c0-2.8-2.4-4.5-6.1-4.5s-6.1,1.7-6.1,4.5C725.9,17.1,728.4,18.9,732.1,18.9z M758.9,16.2v4.1h-6v11H748V5h4.9v11.1h6V16.2z"/>
		<path d="M769.6,33.4c5.9,0,12.1-0.5,18.7-1.9l0.6,4.1c-7.3,1.4-14.1,1.9-20.6,1.9h-3.6V9.2h4.9L769.6,33.4L769.6,33.4z M803.3,26
			h-6.6v22.4h-4.9V5h4.9v16.9h6.6V26z"/>
	</g>
	<g>
		<path d="M64.1,91.2c7,0,12.3-0.3,18.3-1.4l0.5,4.1c-6.6,1.2-12.4,1.4-20.3,1.4H59V66.6h20.2v4H64.1V91.2z M97.8,83.3H91V106h-4.9
			V62.6H91v16.7h6.8V83.3z"/>
		<path d="M127.3,85.1c-6.5,1.2-12.2,1.4-20.5,1.4h-3.5v-13H118v-4.7h-14.8v-4h19.7v12.5h-14.7v5.1c7.4,0,12.7-0.3,18.6-1.4
			L127.3,85.1z M107.7,90.4h27.7v15h-27.7V90.4z M112.6,101.5h18v-7.2h-18C112.6,94.3,112.6,101.5,112.6,101.5z M141.6,77.4h-6.1v11
			h-4.9V62.6h4.9v10.7h6.1V77.4z"/>
		<path d="M174.2,88.2c-3.8,0.7-7.8,1.2-11.6,1.3v15.1h-4.9V89.8c-4,0.1-7.8,0.2-11.3,0.2l-0.6-4.1c8.1,0,18.8-0.1,28.1-1.3
			L174.2,88.2z M147.2,79.1c6.5-1.4,10.2-5.1,10.2-9.1v-0.5h-8.9v-4h23.1v4h-8.9V70c0,3.9,3.6,7.2,10.1,8.4l-2,3.9
			c-5.1-1-8.8-3.4-10.7-6.7c-1.9,3.5-5.6,6.2-11,7.4L147.2,79.1z M181.6,62.6v43.3h-4.9V62.6H181.6z"/>
		<path d="M229,71.5h-25.6v-3.9h10.3v-5h4.9v5H229V71.5z M216.2,89.9c-6.2,0-10.5-3.3-10.5-8.2c0-4.9,4.3-8.2,10.5-8.2
			s10.5,3.3,10.5,8.2S222.4,89.9,216.2,89.9z M214.7,101.1h24.2v4h-29.2V92.6h5V101.1z M216.2,86.1c3.5,0,5.8-1.6,5.8-4.4
			s-2.4-4.4-5.8-4.4c-3.4,0-5.8,1.6-5.8,4.4S212.8,86.1,216.2,86.1z M243.3,76.4v4.1h-6.1v14.6h-4.9V62.6h4.9v13.8H243.3z"/>
		<path d="M286.8,83.6v4H270v8.3h-5v-8.3h-17.5v-4H286.8z M257.3,101.1h25.3v4h-30.2V92.3h4.9V101.1z M282.4,79h-29.7V64h4.9v11
			h24.7L282.4,79L282.4,79z"/>
		<path d="M331.4,82.3c-8.6,1.3-18.3,1.4-25.8,1.5l-0.5-4c1.6,0,3.3,0,5.1,0V69.3h-3.9v-3.9h23.2v3.9h-3.9v9.9
			c1.9-0.1,3.9-0.2,5.7-0.5L331.4,82.3z M315.9,101.7h24.5v3.9h-29.3V94.3h23v-3.5H311V87h28v10.9h-23v3.8H315.9z M314.9,79.7
			c1.9,0,3.8-0.1,5.8-0.2V69.3h-5.8V79.7z M345.1,71.6v4.1H339V85h-5V62.6h4.9v9.1h6.2V71.6z"/>
		<path d="M368.2,90.9c1.4,0,3.1-0.3,4.9-0.7l0.4,4.1c-3.4,0.7-6,0.8-8.1,0.8h-1.8V68h9.2v4h-4.7v18.9H368.2z M379.2,90.9
			c1.7-0.1,3.6-0.3,5.8-0.8l0.4,4.1c-3.4,0.8-6.2,0.9-8.7,0.9h-1.9V68h9.5v4h-5L379.2,90.9L379.2,90.9z M400.3,62.6v43.3h-4.7v-22
			h-4.3v20h-4.6V63.4h4.6v16.5h4.3V62.6H400.3z"/>
		<path d="M459.5,81.1V85h-39.3v-3.9h17.1v-4.7h4.9v4.7H459.5z M422.2,75c7.8-0.7,13.4-3.6,14.3-7.2H424v-3.9h32v3.9h-12.7
			c0.9,3.6,6.5,6.5,14.3,7.2l-1.6,3.7c-7.7-0.7-13.8-3.6-16.1-7.9c-2.3,4.3-8.4,7.2-16.1,7.9L422.2,75z M429.9,101.8h25.9v3.8H425
			V94.9h24.7v-3.3h-24.8v-3.7h29.7v10.5h-24.7L429.9,101.8L429.9,101.8z"/>
		<path d="M503.7,96.2v4.1h-39.2v-4.1h14.6V80.9h5v15.3H503.7z M494.4,70.7h-25.9v-4h30.9V71c0,5.4,0,11.4-1.7,20.4l-5-0.5
			c1.7-8.5,1.7-14.6,1.7-19.8V70.7z"/>
		<path d="M522.9,75.2c0-6,4.9-10.2,11.5-10.2s11.5,4.2,11.5,10.2s-4.8,10.2-11.5,10.2C527.8,85.4,522.9,81.3,522.9,75.2z
			 M553.2,91.1c0,4.5,2.8,8.8,8.4,10.7l-2.4,3.6c-4.2-1.5-7-4.3-8.5-7.8c-1.4,3.4-4,6.5-7.9,8.2c-4.1-1.6-6.6-4.6-8-8.1
			c-1.6,3.4-4.4,6.2-8.4,7.7l-2.4-3.6c5.5-2,8.4-6.4,8.4-10.7v-1.9h4.8v1.9c0,3.6,1.7,7.5,5.5,9.9c3.8-2.6,5.7-6.7,5.7-9.9v-1.9h4.8
			L553.2,91.1L553.2,91.1z M527.7,75.2c0,3.7,2.8,6.1,6.7,6.1c3.8,0,6.7-2.4,6.7-6.1s-2.8-6.1-6.7-6.1
			C530.6,69.1,527.7,71.5,527.7,75.2z M557.8,87.3h-4.9V62.7h4.9V87.3z"/>
		<path d="M572.9,91.2c7,0,12.3-0.3,18.3-1.4l0.5,4.1c-6.6,1.2-12.4,1.4-20.3,1.4H568V66.6h20.2v4H573L572.9,91.2L572.9,91.2z
			 M606.6,83.3h-6.8V106h-4.9V62.6h4.9v16.7h6.8V83.3z"/>
		<path d="M632.6,67.1c0,12.6-5.4,23.7-19.5,30.9l-2.7-3.8c10.6-5.4,16.3-13.1,17.3-23h-15.2v-4h20.1V67.1z M650.5,83.8H644v22.1h-5
			V62.6h4.9v17.1h6.6V83.8z"/>
		<path d="M694.9,85.6c-9,1.6-19.1,1.8-26.4,1.8l-0.6-3.9c3.1,0,6.8,0,10.7-0.1v-3.6c-5-0.7-8.4-3.7-8.4-7.9c0-4.9,4.4-8.1,10.8-8.1
			c6.3,0,10.7,3.2,10.7,8.1c0,4.1-3.2,7.2-8.2,7.9v3.4c3.7-0.2,7.4-0.5,10.9-1L694.9,85.6z M698.4,91.6c0,4.4,2.8,8.4,8.4,10.2
			l-2.4,3.6c-4.2-1.4-7-4.1-8.5-7.4c-1.4,3.4-4,6.3-8,7.8c-4-1.5-6.6-4.4-7.9-7.8c-1.5,3.3-4.3,6-8.4,7.4l-2.4-3.6
			c5.5-1.8,8.4-6,8.4-10.2v-0.9h4.8v0.9c0,3.5,1.7,7.2,5.5,9.5c3.8-2.4,5.6-6.1,5.6-9.5v-0.9h4.8v0.9H698.4z M681,76.5
			c3.6,0,6.1-1.8,6.1-4.5c0-2.8-2.4-4.5-6.1-4.5s-6.1,1.7-6.1,4.5C674.9,74.7,677.4,76.5,681,76.5z M707.9,73.8v4.1h-6v11H697V62.7
			h4.9v11.1H707.9z"/>
		<path d="M728.1,75.1c0,7.2,4.5,14.7,11.2,17.6l-2.7,3.9c-5-2.2-8.9-6.9-10.9-12.5c-1.9,6-5.8,11.2-10.9,13.6l-2.8-3.9
			c6.7-3.1,11.2-11.2,11.2-18.6V71h-9.7v-4.1h24.3V71h-9.6L728.1,75.1L728.1,75.1z M747.8,62.6v43.3h-5V62.6H747.8z"/>
	</g>
</g>
</svg>
