<?xml version="1.0" encoding="utf-8"?>
<!-- Generator: Adobe Illustrator 23.0.0, SVG Export Plug-In . SVG Version: 6.00 Build 0)  -->
<svg version="1.1" id="레이어_1" xmlns="http://www.w3.org/2000/svg" xmlns:xlink="http://www.w3.org/1999/xlink" x="0px"
	 y="0px" width="701.1px" height="448.7px" viewBox="0 0 701.1 448.7" style="enable-background:new 0 0 701.1 448.7;"
	 xml:space="preserve">
<g id="bar_1">
	<path d="M23,21H2.7V3.4H23V21z M12,40h24.5v3.9H7.2V32.4h23v-3.7H7.1v-3.9h28V36H12V40z M18.2,7.3H7.6v9.8h10.6V7.3z M41.2,10v4.1
		h-6.1V23h-4.9V1.1h4.9V10H41.2z"/>
	<path d="M71.6,24.6c-3.1-1.8-5-4.8-6.1-8.2c-1,3.5-2.8,6.6-5.9,8.6c-3.1-2-4.9-5.3-6-8.9c-1.1,3.5-3,6.6-6.1,8.4L44.8,21
		c4.9-3,6.5-9,6.5-13.7V3.8H56v3.5c0,3.6,0.7,8.4,3.6,11.9c2.9-3.4,3.6-8.2,3.6-11.9V3.8h4.7v3.5c0,5,1.5,10.8,6.5,13.7L71.6,24.6z
		 M82.3,36.1c0,5.2-6,8.3-15.2,8.3c-9.4,0-15.3-3.1-15.3-8.3c0-5.1,5.9-8.3,15.3-8.3C76.3,27.8,82.3,31,82.3,36.1z M77.1,36.1
		c0-2.8-3.7-4.4-10-4.4c-6.3,0-10.2,1.6-10.2,4.4c0,2.8,3.8,4.4,10.2,4.4C73.4,40.5,77.1,39,77.1,36.1z M77.1,14.3h-5.9v-4h5.9V1.1
		h5v26.5h-5V14.3z"/>
	<path d="M128.7,25.8h-17.2v18.6h-4.9V25.8h-17v-4.1h10.4c1.6-6,1.9-10.7,2-13.8h-9.3v-4h14.1v2c0,3.1,0,8.4-1.8,15.8h13
		c1.3-6,1.5-10.6,1.6-13.8h-9.7v-4h14.5v2.4c0,3.3,0,8.4-1.4,15.4h5.8V25.8z"/>
	<path d="M140.1,30.2c6.7,0,11.9-0.3,17.8-1.3l0.4,4c-6.5,1.1-12.1,1.3-19.7,1.3h-3.4V16.6h14.5V8.9h-14.6v-4h19.4v15.7h-14.5V30.2z
		 M169.6,1v43.5h-4.9V21.4h-7.6v-4.1h7.6V1H169.6z"/>
	<path d="M200.9,5.7c0,12.9-5.2,23.9-20.1,31.1l-2.6-3.9c11.4-5.5,16.8-13.1,17.6-23.1h-15.5v-4H200.9z M213.6,1.1v43.3h-4.9V1.1
		H213.6z"/>
	<path d="M247.3,24.6c-4.1,0.2-8.1,0.2-11.5,0.2l-0.6-4c8,0,18.6-0.1,27.8-1.3l0.4,3.6c-3.6,0.6-7.4,1.1-11.1,1.2v8.4h-4.9V24.6z
		 M238.6,10.4c0-4.6,4.4-7.6,10.8-7.6c6.3,0,10.7,3,10.7,7.6s-4.4,7.6-10.7,7.6C242.9,18,238.6,15,238.6,10.4z M272.4,39.6v4h-31.3
		V30.8h4.9v8.8H272.4z M243.3,10.4c0,2.4,2.4,4,6,4c3.6,0,6-1.5,6-4s-2.4-4-6-4C245.7,6.4,243.3,7.9,243.3,10.4z M266.4,26.5V1h4.9
		v33h-4.9v-4h-8.5v-3.5H266.4z"/>
	<path d="M301.6,24.9V29c7.8,0.5,12.4,3.2,12.4,7.7c0,5-5.6,7.8-14.9,7.8c-9.3,0-14.9-2.8-14.9-7.8c0-4.5,4.6-7.2,12.4-7.7v-4.1h-17
		V21h39.2v3.9H301.6z M314.9,18.2c-7.1-1-12.9-4.3-15.7-8.8c-2.8,4.5-8.6,7.8-15.7,8.8l-1.8-3.8c8.6-1.1,15-5.9,15-10.9V1.8h5.1v1.6
		c0,5,6.4,9.9,14.9,10.9L314.9,18.2z M299.1,32.7c-6.3,0-9.9,1.4-9.9,4c0,2.6,3.6,4,9.9,4s9.9-1.3,9.9-4
		C309.1,34.1,305.5,32.7,299.1,32.7z"/>
	<path d="M347.6,19.5c0,9.4-4.7,15.3-11.2,15.3c-6.4,0-11.1-5.9-11.1-15.3c0-9.3,4.7-15.3,11.1-15.3
		C342.9,4.3,347.6,10.2,347.6,19.5z M330,19.5c0,6.8,2.6,10.9,6.4,10.9c3.8,0,6.4-4.1,6.4-10.9c0-6.7-2.6-10.8-6.4-10.8
		C332.6,8.7,330,12.8,330,19.5z M359.5,1v43.5h-5V1H359.5z"/>
	<path d="M410.3,23.9c-4.2,0.5-8.4,1-12.7,1.2v17h-5V25.3c-3.8,0.1-7.5,0.2-10.9,0.2l-0.6-4.1c5.5,0,11.9,0,18.1-0.4
		c1.1-5.6,1.2-9.8,1.3-12.8h-15.7v-4h20.5v2.1c0,3,0,7.8-1.2,14.4c2-0.1,3.9-0.3,5.8-0.5L410.3,23.9z M417.7,1.1v43.3h-4.9V1.1
		H417.7z"/>
	<path d="M464.8,21v3.6h-39.3V21H464.8z M435.1,40.6h26.3V44h-31.2V34h25V31h-25.1v-3.4h30v9.7h-25V40.6z M455,5.6h-24.5V2.2h29.4
		v9.6h-24.5v3.1h25.3v3.5h-30.1V8.5H455V5.6z"/>
	<path d="M506.2,24.5c-4.9-1.5-8.4-4.7-10.4-8.7c-1.9,4.4-5.6,8-10.8,9.6l-2.4-3.9c6.9-2.2,10.7-7.4,10.7-13.2V7.7h-9.2v-4h23.3v4
		h-9v0.5c0,5.2,3.6,10.3,10.3,12.3L506.2,24.5z M512.1,26.9h4.9v17h-27.7v-17h4.9v4.6h18V26.9z M512.1,35.3h-18v4.6h18V35.3z
		 M523.1,14.8H517V25h-4.9V1h4.9v9.7h6.1V14.8z"/>
	<path d="M550,19.6c0,9.4-4.7,15.3-11.1,15.3c-6.5,0-11.1-5.9-11.1-15.3s4.7-15.3,11.1-15.3C545.3,4.3,550,10.2,550,19.6z
		 M545.2,19.6c0-6.8-2.6-10.8-6.4-10.8c-3.8,0-6.4,4.1-6.4,10.8s2.6,10.8,6.4,10.8C542.6,30.4,545.2,26.3,545.2,19.6z M567.6,22.1
		h-6.8v22.4h-4.9V1.1h4.9V18h6.8V22.1z"/>
	<path d="M596.9,22.2c-5.7,1.2-10.8,1.4-20.2,1.4h-3.5V4.2h19.3v4h-14.4v11.4c8.3,0,13-0.3,18.2-1.4L596.9,22.2z M605.8,35.9
		c0,5.3-5.6,8.6-14.4,8.6s-14.4-3.3-14.4-8.6c0-5.3,5.6-8.5,14.4-8.5S605.8,30.6,605.8,35.9z M600.9,35.9c0-2.9-3.6-4.5-9.6-4.5
		s-9.6,1.6-9.6,4.5c0,2.9,3.6,4.6,9.6,4.6S600.9,38.8,600.9,35.9z M611.5,11.9V16h-6v10.6h-5V1.1h5v10.8H611.5z"/>
	<path d="M638.6,5.7c0,12.9-5.2,23.9-20.1,31.1l-2.6-3.9c11.4-5.5,16.8-13.1,17.6-23.1h-15.5v-4H638.6z M651.4,1.1v43.3h-4.9V1.1
		H651.4z"/>
	<path d="M675,13.7c0,6.7,4.3,14.4,10.8,17.5l-2.7,3.9c-4.8-2.3-8.5-7.1-10.5-12.6c-1.9,6-5.8,11.2-10.8,13.7l-2.8-3.9
		c6.6-3.2,11-11.4,11-18.6V9.5h-9.5V5.4h23.6v4.1H675V13.7z M700.1,22.3h-6.8v22.2h-4.9V1.1h4.9v17.1h6.8V22.3z"/>
	<path d="M13.1,82.2C9,82.4,5,82.4,1.6,82.4l-0.6-4c8,0,18.6-0.1,27.8-1.3l0.4,3.6c-3.6,0.6-7.4,1.1-11.1,1.2v8.4h-4.9V82.2z
		 M4.3,68c0-4.6,4.4-7.6,10.8-7.6c6.3,0,10.7,3,10.7,7.6s-4.4,7.6-10.7,7.6C8.7,75.6,4.3,72.6,4.3,68z M38.2,97.2v4H6.9V88.4h4.9
		v8.8H38.2z M9,68c0,2.4,2.4,4,6,4c3.6,0,6-1.5,6-4s-2.4-4-6-4C11.5,64,9,65.5,9,68z M32.2,84.1V58.6h4.9v33h-4.9v-4h-8.5v-3.5H32.2
		z"/>
	<path d="M67.4,82.5v4.1c7.8,0.5,12.4,3.2,12.4,7.7c0,5-5.6,7.8-14.9,7.8c-9.3,0-14.9-2.8-14.9-7.8c0-4.5,4.6-7.2,12.4-7.7v-4.1h-17
		v-3.9h39.2v3.9H67.4z M80.7,75.8c-7.1-1-12.9-4.3-15.7-8.8c-2.8,4.5-8.6,7.8-15.7,8.8l-1.8-3.8c8.6-1.1,15-5.9,15-10.9v-1.6h5.1V61
		c0,5,6.4,9.9,14.9,10.9L80.7,75.8z M64.9,90.3c-6.3,0-9.9,1.4-9.9,4c0,2.6,3.6,4,9.9,4s9.9-1.3,9.9-4
		C74.8,91.7,71.2,90.3,64.9,90.3z"/>
	<path d="M113.3,77.1c0,9.4-4.7,15.3-11.2,15.3c-6.4,0-11.1-5.9-11.1-15.3c0-9.3,4.7-15.3,11.1-15.3
		C108.6,61.9,113.3,67.8,113.3,77.1z M95.8,77.1c0,6.8,2.6,10.9,6.4,10.9c3.8,0,6.4-4.1,6.4-10.9c0-6.7-2.6-10.8-6.4-10.8
		C98.4,66.3,95.8,70.4,95.8,77.1z M125.2,58.6v43.5h-5V58.6H125.2z"/>
	<path d="M155.9,63.3c0,12.6-5.4,23.7-19.5,30.9l-2.7-3.8c10.6-5.4,16.3-13.1,17.3-23h-15.2v-4H155.9z M173.9,79.9h-6.6V102h-4.9
		V58.6h4.9v17.1h6.6V79.9z"/>
	<path d="M215.1,77.1c0,9.4-4.7,15.3-11.2,15.3c-6.4,0-11.1-5.9-11.1-15.3c0-9.3,4.7-15.3,11.1-15.3
		C210.4,61.9,215.1,67.8,215.1,77.1z M197.5,77.1c0,6.8,2.6,10.9,6.4,10.9c3.8,0,6.4-4.1,6.4-10.9c0-6.7-2.6-10.8-6.4-10.8
		C200.2,66.3,197.5,70.4,197.5,77.1z M227,58.6v43.5h-5V58.6H227z"/>
	<path d="M258.1,82.4c-4.7-1.7-8.1-5-9.9-9.1c-1.9,4.7-5.5,8.4-10.5,10.3l-2.6-3.9c6.8-2.4,10.5-8.3,10.5-14.5v-4.3h5v4.7
		c0,5.6,3.7,10.8,10.1,13L258.1,82.4z M269.8,93.9c0,5.1-5.5,8.2-14.4,8.2c-8.9,0-14.4-3-14.4-8.2c0-5.1,5.5-8.1,14.4-8.1
		C264.3,85.8,269.8,88.8,269.8,93.9z M264.9,93.9c0-2.7-3.5-4.2-9.6-4.2c-6,0-9.6,1.5-9.6,4.2c0,2.8,3.5,4.3,9.6,4.3
		C261.4,98.2,264.9,96.7,264.9,93.9z M275.5,69.4v4.1h-6.1v11.2h-4.9V58.6h4.9v10.8H275.5z"/>
	<path d="M305.3,67.6h-25.6v-3.9H290v-5h4.9v5h10.3V67.6z M292.5,86c-6.2,0-10.5-3.3-10.5-8.2c0-4.9,4.3-8.2,10.5-8.2
		c6.2,0,10.5,3.3,10.5,8.2C303,82.7,298.7,86,292.5,86z M291,97.2h24.2v4H286V88.7h5V97.2z M292.5,82.2c3.5,0,5.8-1.6,5.8-4.4
		s-2.4-4.4-5.8-4.4c-3.4,0-5.8,1.6-5.8,4.4S289,82.2,292.5,82.2z M319.6,72.5v4.1h-6.1v14.6h-4.9V58.7h4.9v13.8H319.6z"/>
	<path d="M376.5,92.6v4.1h-39.3v-4.1h16.9V82.5h4.9v10.1H376.5z M372.8,83.3c-7.1-1.4-13.2-5.7-16-11.5c-2.9,5.8-9,10.1-16.1,11.5
		l-2.1-4.1c8.6-1.4,15.6-7.9,15.6-14.6v-3.3h5.2v3.3c0,6.7,7,13.2,15.5,14.6L372.8,83.3z"/>
	<path d="M388.8,87.7c6.9,0,12.9-0.4,19.7-1.5l0.5,4c-7.4,1.3-13.9,1.5-21.6,1.5h-3.7V74.6H399v-8.1h-15.2v-4H404v16.1h-15.1V87.7z
		 M417.2,58.6v43.5h-5V58.6H417.2z"/>
	<path d="M464.8,78.6v3.6h-39.3v-3.6H464.8z M435.1,98.2h26.3v3.4h-31.2v-9.9h25v-3.1h-25.1v-3.4h30v9.7h-25V98.2z M455,63.2h-24.5
		v-3.4h29.4v9.6h-24.5v3.1h25.3v3.5h-30.1v-9.7H455V63.2z"/>
	<path d="M499.1,71.2c0,7.2,4.5,14.7,11.2,17.6l-2.7,3.9c-5-2.2-8.9-6.9-10.9-12.5c-1.9,6-5.8,11.2-10.9,13.6l-2.8-3.9
		c6.7-3.1,11.2-11.2,11.2-18.6v-4.1h-9.6V63h24.3v4.1h-9.6V71.2z M518.8,58.7V102h-5V58.7H518.8z"/>
	<path d="M566.6,92.8v4.1h-39.3v-4.1H566.6z M557,65.8H532v-4h30v13.7h-25v6h26v4h-30.8v-14h25V65.8z"/>
	<path d="M578.2,87.1c4.3-0.1,8.4-0.4,13-1.2l0.6,4.1c-5.5,1.1-10.2,1.3-15.6,1.3h-2.9V63.1h4.9V87.1z M594.6,59.6h4.6V100h-4.6
		V76.9h-9.2v-4h9.2V59.6z M608.5,58.6V102h-4.8V58.6H608.5z"/>
	<path d="M23.9,134.8c0,9.4-4.7,15.3-11.1,15.3s-11.1-5.9-11.1-15.3s4.7-15.3,11.1-15.3S23.9,125.4,23.9,134.8z M19.1,134.8
		c0-6.8-2.6-10.8-6.4-10.8c-3.8,0-6.4,4.1-6.4,10.8s2.6,10.8,6.4,10.8C16.5,145.6,19.1,141.5,19.1,134.8z M41.6,137.3h-6.8v22.4
		h-4.9v-43.4h4.9v16.9h6.8V137.3z"/>
	<path d="M68.1,134.7c0,9.4-4.7,15.3-11.1,15.3s-11.1-5.9-11.1-15.3c0-9.3,4.7-15.3,11.1-15.3S68.1,125.4,68.1,134.7z M63.3,134.7
		c0-6.7-2.6-10.8-6.4-10.8c-3.8,0-6.4,4.1-6.4,10.8c0,6.8,2.6,10.9,6.4,10.9C60.7,145.6,63.3,141.5,63.3,134.7z M79,130.9v8.7h6.5
		v4.1H79v15.9H74v-43.4H79v10.6h6.5v4.1H79z"/>
	<path d="M112.2,134.8c0,9.4-4.7,15.3-11.1,15.3s-11.1-5.9-11.1-15.3s4.7-15.3,11.1-15.3S112.2,125.4,112.2,134.8z M107.5,134.8
		c0-6.8-2.6-10.8-6.4-10.8c-3.8,0-6.4,4.1-6.4,10.8s2.6,10.8,6.4,10.8C104.8,145.6,107.5,141.5,107.5,134.8z M129.9,137.3h-6.8v22.4
		h-4.9v-43.4h4.9v16.9h6.8V137.3z"/>
	<path d="M156.4,134.7c0,9.4-4.7,15.3-11.1,15.3s-11.1-5.9-11.1-15.3c0-9.3,4.7-15.3,11.1-15.3S156.4,125.4,156.4,134.7z
		 M151.6,134.7c0-6.7-2.6-10.8-6.4-10.8c-3.8,0-6.4,4.1-6.4,10.8c0,6.8,2.6,10.9,6.4,10.9C149,145.6,151.6,141.5,151.6,134.7z
		 M167.3,130.9v8.7h6.5v4.1h-6.5v15.9h-4.9v-43.4h4.9v10.6h6.5v4.1H167.3z"/>
	<path d="M213.9,116.2v43.5h-5v-23.3h-8.4c-0.6,8.4-5,13.6-10.9,13.6c-6.4,0-10.9-5.9-10.9-15.3c0-9.3,4.6-15.3,10.9-15.3
		c5.8,0,10.2,5,10.9,13h8.4v-16.2H213.9z M195.8,134.7c0-6.7-2.5-10.8-6.3-10.8c-3.7,0-6.2,4.1-6.2,10.8c0,6.9,2.5,10.9,6.2,10.9
		C193.3,145.6,195.8,141.6,195.8,134.7z"/>
	<path d="M258,116.2v43.5h-5v-16.5h-10c-1.8,4.3-5.2,6.8-9.4,6.8c-6.4,0-10.9-5.9-10.9-15.3c0-9.3,4.6-15.3,10.9-15.3
		c3.9,0,7.2,2.3,9.1,6.1h10.2v-9.4H258z M240,134.7c0-6.7-2.5-10.8-6.3-10.8c-3.7,0-6.3,4.1-6.3,10.8c0,6.8,2.6,10.9,6.3,10.9
		C237.4,145.6,240,141.5,240,134.7z M253.1,139.2v-9.5h-8.9c0.3,1.6,0.5,3.2,0.5,5c0,1.6-0.1,3.1-0.4,4.5H253.1z"/>
	<path d="M305.5,150.3v4h-39.3v-4h17.1V142c-7.9-0.7-13.4-5.1-13.4-11.5c0-7.1,6.7-11.6,15.9-11.6c9.2,0,15.9,4.6,15.9,11.6
		c0,6.4-5.6,10.8-13.5,11.6v8.3H305.5z M285.8,138.1c6.4,0,11.1-3,11.1-7.7s-4.7-7.7-11.1-7.7c-6.5,0-11.1,3-11.1,7.7
		S279.3,138.1,285.8,138.1z"/>
	<path d="M349.6,150.3v4h-39.3v-4h9.2V139c-3.5-1.9-5.5-5-5.5-8.9c0-6.9,6.7-11.3,15.9-11.3c9.2,0,15.9,4.4,15.9,11.3
		c0,3.8-2.1,6.9-5.5,8.9v11.3H349.6z M318.8,130.1c0,4.6,4.6,7.5,11.1,7.5c6.5,0,11.1-2.9,11.1-7.5c0-4.6-4.6-7.4-11.1-7.4
		C323.4,122.7,318.8,125.6,318.8,130.1z M324.5,150.3h10.9v-9.5c-1.7,0.4-3.6,0.6-5.5,0.6c-1.9,0-3.8-0.2-5.5-0.6V150.3z"/>
	<path d="M393.8,144.9h-17.3v14.7h-4.9v-14.7h-17v-4.1h39.3V144.9z M358.6,127.5c0-5.9,6.2-9.6,15.4-9.6c9.1,0,15.4,3.7,15.4,9.6
		c0,5.9-6.2,9.6-15.4,9.6C364.9,137.1,358.6,133.4,358.6,127.5z M363.7,127.5c0,3.6,4.1,5.7,10.3,5.7c6.2,0,10.3-2.1,10.3-5.7
		c0-3.5-4.1-5.6-10.3-5.6C367.8,121.9,363.7,124,363.7,127.5z"/>
	<path d="M438,144.8h-9.8v14.8h-5v-14.8h-9.9v14.8h-5v-14.8h-9.6v-4.1h39.3L438,144.8z M402.8,127.4c0-5.8,6.2-9.6,15.4-9.6
		c9.1,0,15.4,3.7,15.4,9.6c0,5.9-6.2,9.6-15.4,9.6C409,137,402.8,133.3,402.8,127.4z M407.9,127.4c0,3.5,4.1,5.6,10.3,5.6
		c6.2,0,10.3-2.1,10.3-5.6c0-3.5-4.1-5.6-10.3-5.6C412,121.9,407.9,124,407.9,127.4z"/>
	<path d="M482.1,150.1v4.1h-39.3v-4.1H482.1z M478.4,131c0,7.4-6.9,12.2-15.9,12.2c-9.1,0-15.9-4.8-15.9-12.2
		c0-7.3,6.9-12.2,15.9-12.2C471.4,118.7,478.4,123.6,478.4,131z M451.3,131c0,5,4.7,8.2,11.1,8.2c6.4,0,11.1-3.2,11.1-8.2
		c0-5-4.8-8.2-11.1-8.2C456,122.8,451.3,126,451.3,131z"/>
	<path d="M510.8,134.7c0,9.4-4.7,15.3-11.2,15.3c-6.4,0-11.1-5.9-11.1-15.3c0-9.3,4.7-15.3,11.1-15.3
		C506.1,119.5,510.8,125.4,510.8,134.7z M493.2,134.7c0,6.8,2.6,10.9,6.4,10.9c3.8,0,6.4-4.1,6.4-10.9c0-6.7-2.6-10.8-6.4-10.8
		C495.8,123.9,493.2,128,493.2,134.7z M522.7,116.2v43.5h-5v-43.5H522.7z"/>
	<path d="M23.9,192.4c0,9.4-4.7,15.3-11.1,15.3s-11.1-5.9-11.1-15.3s4.7-15.3,11.1-15.3S23.9,183,23.9,192.4z M19.1,192.4
		c0-6.8-2.6-10.8-6.4-10.8c-3.8,0-6.4,4.1-6.4,10.8s2.6,10.8,6.4,10.8C16.5,203.2,19.1,199.1,19.1,192.4z M41.6,194.9h-6.8v22.4
		h-4.9v-43.4h4.9v16.9h6.8V194.9z"/>
	<path d="M68.1,192.3c0,9.4-4.7,15.3-11.1,15.3s-11.1-5.9-11.1-15.3c0-9.3,4.7-15.3,11.1-15.3S68.1,183,68.1,192.3z M63.3,192.3
		c0-6.7-2.6-10.8-6.4-10.8c-3.8,0-6.4,4.1-6.4,10.8c0,6.8,2.6,10.9,6.4,10.9C60.7,203.2,63.3,199.1,63.3,192.3z M79,188.5v8.7h6.5
		v4.1H79v15.9H74v-43.4H79v10.6h6.5v4.1H79z"/>
	<path d="M112.2,192.4c0,9.4-4.7,15.3-11.1,15.3s-11.1-5.9-11.1-15.3s4.7-15.3,11.1-15.3S112.2,183,112.2,192.4z M107.5,192.4
		c0-6.8-2.6-10.8-6.4-10.8c-3.8,0-6.4,4.1-6.4,10.8s2.6,10.8,6.4,10.8C104.8,203.2,107.5,199.1,107.5,192.4z M129.9,194.9h-6.8v22.4
		h-4.9v-43.4h4.9v16.9h6.8V194.9z"/>
	<path d="M156.4,192.3c0,9.4-4.7,15.3-11.1,15.3s-11.1-5.9-11.1-15.3c0-9.3,4.7-15.3,11.1-15.3S156.4,183,156.4,192.3z M151.6,192.3
		c0-6.7-2.6-10.8-6.4-10.8c-3.8,0-6.4,4.1-6.4,10.8c0,6.8,2.6,10.9,6.4,10.9C149,203.2,151.6,199.1,151.6,192.3z M167.3,188.5v8.7
		h6.5v4.1h-6.5v15.9h-4.9v-43.4h4.9v10.6h6.5v4.1H167.3z"/>
	<path d="M213.9,173.8v43.5h-5v-23.3h-8.4c-0.6,8.4-5,13.6-10.9,13.6c-6.4,0-10.9-5.9-10.9-15.3c0-9.3,4.6-15.3,10.9-15.3
		c5.8,0,10.2,5,10.9,13h8.4v-16.2H213.9z M195.8,192.3c0-6.7-2.5-10.8-6.3-10.8c-3.7,0-6.2,4.1-6.2,10.8c0,6.9,2.5,10.9,6.2,10.9
		C193.3,203.2,195.8,199.2,195.8,192.3z"/>
	<path d="M258,173.8v43.5h-5v-16.5h-10c-1.8,4.3-5.2,6.8-9.4,6.8c-6.4,0-10.9-5.9-10.9-15.3c0-9.3,4.6-15.3,10.9-15.3
		c3.9,0,7.2,2.3,9.1,6.1h10.2v-9.4H258z M240,192.3c0-6.7-2.5-10.8-6.3-10.8c-3.7,0-6.3,4.1-6.3,10.8c0,6.8,2.6,10.9,6.3,10.9
		C237.4,203.2,240,199.1,240,192.3z M253.1,196.8v-9.5h-8.9c0.3,1.6,0.5,3.2,0.5,5c0,1.6-0.1,3.1-0.4,4.5H253.1z"/>
	<path d="M305.5,207.9v4h-39.3v-4h17.1v-8.3c-7.9-0.7-13.4-5.1-13.4-11.5c0-7.1,6.7-11.6,15.9-11.6c9.2,0,15.9,4.6,15.9,11.6
		c0,6.4-5.6,10.8-13.5,11.6v8.3H305.5z M285.8,195.7c6.4,0,11.1-3,11.1-7.7s-4.7-7.7-11.1-7.7c-6.5,0-11.1,3-11.1,7.7
		S279.3,195.7,285.8,195.7z"/>
	<path d="M349.6,207.9v4h-39.3v-4h9.2v-11.3c-3.5-1.9-5.5-5-5.5-8.9c0-6.9,6.7-11.3,15.9-11.3c9.2,0,15.9,4.4,15.9,11.3
		c0,3.8-2.1,6.9-5.5,8.9v11.3H349.6z M318.8,187.7c0,4.6,4.6,7.5,11.1,7.5c6.5,0,11.1-2.9,11.1-7.5c0-4.6-4.6-7.4-11.1-7.4
		C323.4,180.3,318.8,183.2,318.8,187.7z M324.5,207.9h10.9v-9.5c-1.7,0.4-3.6,0.6-5.5,0.6c-1.9,0-3.8-0.2-5.5-0.6V207.9z"/>
	<path d="M393.8,202.5h-17.3v14.7h-4.9v-14.7h-17v-4.1h39.3V202.5z M358.6,185.1c0-5.9,6.2-9.6,15.4-9.6c9.1,0,15.4,3.7,15.4,9.6
		c0,5.9-6.2,9.6-15.4,9.6C364.9,194.7,358.6,191,358.6,185.1z M363.7,185.1c0,3.6,4.1,5.7,10.3,5.7c6.2,0,10.3-2.1,10.3-5.7
		c0-3.5-4.1-5.6-10.3-5.6C367.8,179.5,363.7,181.6,363.7,185.1z"/>
	<path d="M438,202.4h-9.8v14.8h-5v-14.8h-9.9v14.8h-5v-14.8h-9.6v-4.1h39.3L438,202.4z M402.8,185c0-5.8,6.2-9.6,15.4-9.6
		c9.1,0,15.4,3.7,15.4,9.6c0,5.9-6.2,9.6-15.4,9.6C409,194.6,402.8,190.9,402.8,185z M407.9,185c0,3.5,4.1,5.6,10.3,5.6
		c6.2,0,10.3-2.1,10.3-5.6c0-3.5-4.1-5.6-10.3-5.6C412,179.5,407.9,181.6,407.9,185z"/>
	<path d="M482.1,207.7v4.1h-39.3v-4.1H482.1z M478.4,188.6c0,7.4-6.9,12.2-15.9,12.2c-9.1,0-15.9-4.8-15.9-12.2
		c0-7.3,6.9-12.2,15.9-12.2C471.4,176.3,478.4,181.2,478.4,188.6z M451.3,188.6c0,5,4.7,8.2,11.1,8.2c6.4,0,11.1-3.2,11.1-8.2
		c0-5-4.8-8.2-11.1-8.2C456,180.4,451.3,183.6,451.3,188.6z"/>
	<path d="M510.8,192.3c0,9.4-4.7,15.3-11.2,15.3c-6.4,0-11.1-5.9-11.1-15.3c0-9.3,4.7-15.3,11.1-15.3
		C506.1,177.1,510.8,183,510.8,192.3z M493.2,192.3c0,6.8,2.6,10.9,6.4,10.9c3.8,0,6.4-4.1,6.4-10.9c0-6.7-2.6-10.8-6.4-10.8
		C495.8,181.5,493.2,185.6,493.2,192.3z M522.7,173.8v43.5h-5v-43.5H522.7z"/>
	<path d="M23.9,250c0,9.4-4.7,15.3-11.1,15.3S1.6,259.3,1.6,250s4.7-15.3,11.1-15.3S23.9,240.6,23.9,250z M19.1,250
		c0-6.8-2.6-10.8-6.4-10.8c-3.8,0-6.4,4.1-6.4,10.8s2.6,10.8,6.4,10.8C16.5,260.8,19.1,256.7,19.1,250z M41.6,252.5h-6.8v22.4h-4.9
		v-43.4h4.9v16.9h6.8V252.5z"/>
	<path d="M68.1,249.9c0,9.4-4.7,15.3-11.1,15.3s-11.1-5.9-11.1-15.3c0-9.3,4.7-15.3,11.1-15.3S68.1,240.6,68.1,249.9z M63.3,249.9
		c0-6.7-2.6-10.8-6.4-10.8c-3.8,0-6.4,4.1-6.4,10.8c0,6.8,2.6,10.9,6.4,10.9C60.7,260.8,63.3,256.7,63.3,249.9z M79,246.1v8.7h6.5
		v4.1H79v15.9H74v-43.4H79v10.6h6.5v4.1H79z"/>
	<path d="M139,231.4v43.5h-5v-23.3h-8.4c-0.6,8.4-5,13.6-10.9,13.6c-6.4,0-10.9-5.9-10.9-15.3c0-9.3,4.6-15.3,10.9-15.3
		c5.8,0,10.2,5,10.9,13h8.4v-16.2H139z M121,249.9c0-6.7-2.5-10.8-6.3-10.8c-3.7,0-6.2,4.1-6.2,10.8c0,6.9,2.5,10.9,6.2,10.9
		C118.4,260.8,121,256.8,121,249.9z"/>
	<path d="M183.2,231.4v43.5h-5v-16.5h-10c-1.8,4.3-5.2,6.8-9.4,6.8c-6.4,0-10.9-5.9-10.9-15.3c0-9.3,4.6-15.3,10.9-15.3
		c3.9,0,7.2,2.3,9.1,6.1h10.2v-9.4H183.2z M165.1,249.9c0-6.7-2.5-10.8-6.3-10.8c-3.7,0-6.3,4.1-6.3,10.8c0,6.8,2.6,10.9,6.3,10.9
		C162.6,260.8,165.1,256.7,165.1,249.9z M178.2,254.4v-9.5h-8.9c0.3,1.6,0.5,3.2,0.5,5c0,1.6-0.1,3.1-0.4,4.5H178.2z"/>
	<path d="M244,265.5v4h-39.3v-4h17.1v-8.3c-7.9-0.7-13.4-5.1-13.4-11.5c0-7.1,6.7-11.6,15.9-11.6c9.2,0,15.9,4.6,15.9,11.6
		c0,6.4-5.6,10.8-13.5,11.6v8.3H244z M224.3,253.3c6.4,0,11.1-3,11.1-7.7s-4.7-7.7-11.1-7.7c-6.5,0-11.1,3-11.1,7.7
		S217.9,253.3,224.3,253.3z"/>
	<path d="M288.2,265.5v4h-39.3v-4h9.2v-11.3c-3.5-1.9-5.5-5-5.5-8.9c0-6.9,6.7-11.3,15.9-11.3c9.2,0,15.9,4.4,15.9,11.3
		c0,3.8-2.1,6.9-5.5,8.9v11.3H288.2z M257.4,245.3c0,4.6,4.6,7.5,11.1,7.5c6.5,0,11.1-2.9,11.1-7.5c0-4.6-4.6-7.4-11.1-7.4
		C261.9,237.9,257.4,240.8,257.4,245.3z M263,265.5H274V256c-1.7,0.4-3.6,0.6-5.5,0.6c-1.9,0-3.8-0.2-5.5-0.6V265.5z"/>
	<path d="M345.8,260.1h-17.3v14.7h-4.9v-14.7h-17V256h39.3V260.1z M310.6,242.7c0-5.9,6.2-9.6,15.4-9.6c9.1,0,15.4,3.7,15.4,9.6
		c0,5.9-6.2,9.6-15.4,9.6C316.9,252.3,310.6,248.6,310.6,242.7z M315.7,242.7c0,3.6,4.1,5.7,10.3,5.7c6.2,0,10.3-2.1,10.3-5.7
		c0-3.5-4.1-5.6-10.3-5.6C319.8,237.1,315.7,239.2,315.7,242.7z"/>
	<path d="M390,260h-9.8v14.8h-5V260h-9.9v14.8h-5V260h-9.6v-4.1h39.3L390,260z M354.8,242.6c0-5.8,6.2-9.6,15.4-9.6
		c9.1,0,15.4,3.7,15.4,9.6c0,5.9-6.2,9.6-15.4,9.6C361,252.2,354.8,248.5,354.8,242.6z M359.9,242.6c0,3.5,4.1,5.6,10.3,5.6
		c6.2,0,10.3-2.1,10.3-5.6c0-3.5-4.1-5.6-10.3-5.6C364,237.1,359.9,239.2,359.9,242.6z"/>
	<path d="M23.9,307.6c0,9.4-4.7,15.3-11.1,15.3s-11.1-5.9-11.1-15.3s4.7-15.3,11.1-15.3S23.9,298.2,23.9,307.6z M19.1,307.6
		c0-6.8-2.6-10.8-6.4-10.8c-3.8,0-6.4,4.1-6.4,10.8s2.6,10.8,6.4,10.8C16.5,318.4,19.1,314.3,19.1,307.6z M41.6,310.1h-6.8v22.4
		h-4.9v-43.4h4.9V306h6.8V310.1z"/>
	<path d="M68.1,307.5c0,9.4-4.7,15.3-11.1,15.3s-11.1-5.9-11.1-15.3c0-9.3,4.7-15.3,11.1-15.3S68.1,298.2,68.1,307.5z M63.3,307.5
		c0-6.7-2.6-10.8-6.4-10.8c-3.8,0-6.4,4.1-6.4,10.8c0,6.8,2.6,10.9,6.4,10.9C60.7,318.4,63.3,314.3,63.3,307.5z M79,303.7v8.7h6.5
		v4.1H79v15.9H74v-43.4H79v10.6h6.5v4.1H79z"/>
	<path d="M139,289v43.5h-5v-23.3h-8.4c-0.6,8.4-5,13.6-10.9,13.6c-6.4,0-10.9-5.9-10.9-15.3c0-9.3,4.6-15.3,10.9-15.3
		c5.8,0,10.2,5,10.9,13h8.4V289H139z M121,307.5c0-6.7-2.5-10.8-6.3-10.8c-3.7,0-6.2,4.1-6.2,10.8c0,6.9,2.5,10.9,6.2,10.9
		C118.4,318.4,121,314.4,121,307.5z"/>
	<path d="M183.2,289v43.5h-5v-16.5h-10c-1.8,4.3-5.2,6.8-9.4,6.8c-6.4,0-10.9-5.9-10.9-15.3c0-9.3,4.6-15.3,10.9-15.3
		c3.9,0,7.2,2.3,9.1,6.1h10.2V289H183.2z M165.1,307.5c0-6.7-2.5-10.8-6.3-10.8c-3.7,0-6.3,4.1-6.3,10.8c0,6.8,2.6,10.9,6.3,10.9
		C162.6,318.4,165.1,314.3,165.1,307.5z M178.2,312v-9.5h-8.9c0.3,1.6,0.5,3.2,0.5,5c0,1.6-0.1,3.1-0.4,4.5H178.2z"/>
	<path d="M244,323.1v4h-39.3v-4h17.1v-8.3c-7.9-0.7-13.4-5.1-13.4-11.5c0-7.1,6.7-11.6,15.9-11.6c9.2,0,15.9,4.6,15.9,11.6
		c0,6.4-5.6,10.8-13.5,11.6v8.3H244z M224.3,310.9c6.4,0,11.1-3,11.1-7.7s-4.7-7.7-11.1-7.7c-6.5,0-11.1,3-11.1,7.7
		S217.9,310.9,224.3,310.9z"/>
	<path d="M288.2,323.1v4h-39.3v-4h9.2v-11.3c-3.5-1.9-5.5-5-5.5-8.9c0-6.9,6.7-11.3,15.9-11.3c9.2,0,15.9,4.4,15.9,11.3
		c0,3.8-2.1,6.9-5.5,8.9v11.3H288.2z M257.4,302.9c0,4.6,4.6,7.5,11.1,7.5c6.5,0,11.1-2.9,11.1-7.5c0-4.6-4.6-7.4-11.1-7.4
		C261.9,295.5,257.4,298.4,257.4,302.9z M263,323.1H274v-9.5c-1.7,0.4-3.6,0.6-5.5,0.6c-1.9,0-3.8-0.2-5.5-0.6V323.1z"/>
	<path d="M345.8,317.7h-17.3v14.7h-4.9v-14.7h-17v-4.1h39.3V317.7z M310.6,300.3c0-5.9,6.2-9.6,15.4-9.6c9.1,0,15.4,3.7,15.4,9.6
		c0,5.9-6.2,9.6-15.4,9.6C316.9,309.9,310.6,306.2,310.6,300.3z M315.7,300.3c0,3.6,4.1,5.7,10.3,5.7c6.2,0,10.3-2.1,10.3-5.7
		c0-3.5-4.1-5.6-10.3-5.6C319.8,294.7,315.7,296.8,315.7,300.3z"/>
	<path d="M390,317.6h-9.8v14.8h-5v-14.8h-9.9v14.8h-5v-14.8h-9.6v-4.1h39.3L390,317.6z M354.8,300.2c0-5.8,6.2-9.6,15.4-9.6
		c9.1,0,15.4,3.7,15.4,9.6c0,5.9-6.2,9.6-15.4,9.6C361,309.8,354.8,306.1,354.8,300.2z M359.9,300.2c0,3.5,4.1,5.6,10.3,5.6
		c6.2,0,10.3-2.1,10.3-5.6c0-3.5-4.1-5.6-10.3-5.6C364,294.7,359.9,296.8,359.9,300.2z"/>
	<path d="M23.9,365.2c0,9.4-4.7,15.3-11.1,15.3s-11.1-5.9-11.1-15.3c0-9.4,4.7-15.3,11.1-15.3S23.9,355.8,23.9,365.2z M19.1,365.2
		c0-6.8-2.6-10.8-6.4-10.8c-3.8,0-6.4,4.1-6.4,10.8S9,376,12.8,376C16.5,376,19.1,371.9,19.1,365.2z M41.6,367.7h-6.8v22.4h-4.9
		v-43.4h4.9v16.9h6.8V367.7z"/>
	<path d="M68.1,365.1c0,9.4-4.7,15.3-11.1,15.3s-11.1-5.9-11.1-15.3c0-9.3,4.7-15.3,11.1-15.3S68.1,355.8,68.1,365.1z M63.3,365.1
		c0-6.7-2.6-10.8-6.4-10.8c-3.8,0-6.4,4.1-6.4,10.8c0,6.8,2.6,10.9,6.4,10.9C60.7,376,63.3,371.9,63.3,365.1z M79,361.3v8.7h6.5v4.1
		H79v15.9H74v-43.4H79v10.6h6.5v4.1H79z"/>
	<path d="M112.2,365.2c0,9.4-4.7,15.3-11.1,15.3s-11.1-5.9-11.1-15.3c0-9.4,4.7-15.3,11.1-15.3S112.2,355.8,112.2,365.2z
		 M107.5,365.2c0-6.8-2.6-10.8-6.4-10.8c-3.8,0-6.4,4.1-6.4,10.8s2.6,10.8,6.4,10.8C104.8,376,107.5,371.9,107.5,365.2z
		 M129.9,367.7h-6.8v22.4h-4.9v-43.4h4.9v16.9h6.8V367.7z"/>
	<path d="M156.4,365.1c0,9.4-4.7,15.3-11.1,15.3s-11.1-5.9-11.1-15.3c0-9.3,4.7-15.3,11.1-15.3S156.4,355.8,156.4,365.1z
		 M151.6,365.1c0-6.7-2.6-10.8-6.4-10.8c-3.8,0-6.4,4.1-6.4,10.8c0,6.8,2.6,10.9,6.4,10.9C149,376,151.6,371.9,151.6,365.1z
		 M167.3,361.3v8.7h6.5v4.1h-6.5v15.9h-4.9v-43.4h4.9v10.6h6.5v4.1H167.3z"/>
	<path d="M213.9,346.6v43.5h-5v-23.3h-8.4c-0.6,8.4-5,13.6-10.9,13.6c-6.4,0-10.9-5.9-10.9-15.3c0-9.3,4.6-15.3,10.9-15.3
		c5.8,0,10.2,5,10.9,13h8.4v-16.2H213.9z M195.8,365.1c0-6.7-2.5-10.8-6.3-10.8c-3.7,0-6.2,4.1-6.2,10.8c0,6.9,2.5,10.9,6.2,10.9
		C193.3,376,195.8,372,195.8,365.1z"/>
	<path d="M258,346.6v43.5h-5v-16.5h-10c-1.8,4.3-5.2,6.8-9.4,6.8c-6.4,0-10.9-5.9-10.9-15.3c0-9.3,4.6-15.3,10.9-15.3
		c3.9,0,7.2,2.3,9.1,6.1h10.2v-9.4H258z M240,365.1c0-6.7-2.5-10.8-6.3-10.8c-3.7,0-6.3,4.1-6.3,10.8c0,6.8,2.6,10.9,6.3,10.9
		C237.4,376,240,371.9,240,365.1z M253.1,369.6v-9.5h-8.9c0.3,1.6,0.5,3.2,0.5,5c0,1.6-0.1,3.1-0.4,4.5H253.1z"/>
	<path d="M305.5,380.7v4h-39.3v-4h17.1v-8.3c-7.9-0.7-13.4-5.1-13.4-11.5c0-7.1,6.7-11.6,15.9-11.6c9.2,0,15.9,4.6,15.9,11.6
		c0,6.4-5.6,10.8-13.5,11.6v8.3H305.5z M285.8,368.5c6.4,0,11.1-3,11.1-7.7s-4.7-7.7-11.1-7.7c-6.5,0-11.1,3-11.1,7.7
		S279.3,368.5,285.8,368.5z"/>
	<path d="M349.6,380.7v4h-39.3v-4h9.2v-11.3c-3.5-1.9-5.5-5-5.5-8.9c0-6.9,6.7-11.3,15.9-11.3c9.2,0,15.9,4.4,15.9,11.3
		c0,3.8-2.1,6.9-5.5,8.9v11.3H349.6z M318.8,360.5c0,4.6,4.6,7.5,11.1,7.5c6.5,0,11.1-2.9,11.1-7.5c0-4.6-4.6-7.4-11.1-7.4
		C323.4,353.1,318.8,356,318.8,360.5z M324.5,380.7h10.9v-9.5c-1.7,0.4-3.6,0.6-5.5,0.6c-1.9,0-3.8-0.2-5.5-0.6V380.7z"/>
	<path d="M393.8,375.3h-17.3V390h-4.9v-14.7h-17v-4.1h39.3V375.3z M358.6,357.9c0-5.9,6.2-9.6,15.4-9.6c9.1,0,15.4,3.7,15.4,9.6
		c0,5.9-6.2,9.6-15.4,9.6C364.9,367.5,358.6,363.8,358.6,357.9z M363.7,357.9c0,3.6,4.1,5.7,10.3,5.7c6.2,0,10.3-2.1,10.3-5.7
		c0-3.5-4.1-5.6-10.3-5.6C367.8,352.3,363.7,354.4,363.7,357.9z"/>
	<path d="M438,375.2h-9.8V390h-5v-14.8h-9.9V390h-5v-14.8h-9.6v-4.1h39.3L438,375.2z M402.8,357.8c0-5.8,6.2-9.6,15.4-9.6
		c9.1,0,15.4,3.7,15.4,9.6c0,5.9-6.2,9.6-15.4,9.6C409,367.4,402.8,363.7,402.8,357.8z M407.9,357.8c0,3.5,4.1,5.6,10.3,5.6
		c6.2,0,10.3-2.1,10.3-5.6c0-3.5-4.1-5.6-10.3-5.6C412,352.3,407.9,354.4,407.9,357.8z"/>
	<path d="M482.1,380.5v4.1h-39.3v-4.1H482.1z M478.4,361.4c0,7.4-6.9,12.2-15.9,12.2c-9.1,0-15.9-4.8-15.9-12.2
		c0-7.3,6.9-12.2,15.9-12.2C471.4,349.1,478.4,354,478.4,361.4z M451.3,361.4c0,5,4.7,8.2,11.1,8.2c6.4,0,11.1-3.2,11.1-8.2
		c0-5-4.8-8.2-11.1-8.2C456,353.2,451.3,356.4,451.3,361.4z"/>
	<path d="M510.8,365.1c0,9.4-4.7,15.3-11.2,15.3c-6.4,0-11.1-5.9-11.1-15.3c0-9.3,4.7-15.3,11.1-15.3
		C506.1,349.9,510.8,355.8,510.8,365.1z M493.2,365.1c0,6.8,2.6,10.9,6.4,10.9c3.8,0,6.4-4.1,6.4-10.9c0-6.7-2.6-10.8-6.4-10.8
		C495.8,354.3,493.2,358.4,493.2,365.1z M522.7,346.6v43.5h-5v-43.5H522.7z"/>
	<path d="M23.9,422.8c0,9.4-4.7,15.3-11.1,15.3s-11.1-5.9-11.1-15.3c0-9.4,4.7-15.3,11.1-15.3S23.9,413.4,23.9,422.8z M19.1,422.8
		c0-6.8-2.6-10.8-6.4-10.8c-3.8,0-6.4,4.1-6.4,10.8s2.6,10.8,6.4,10.8C16.5,433.6,19.1,429.5,19.1,422.8z M41.6,425.3h-6.8v22.4
		h-4.9v-43.4h4.9v16.9h6.8V425.3z"/>
	<path d="M68.1,422.7c0,9.4-4.7,15.3-11.1,15.3s-11.1-5.9-11.1-15.3c0-9.3,4.7-15.3,11.1-15.3S68.1,413.4,68.1,422.7z M63.3,422.7
		c0-6.7-2.6-10.8-6.4-10.8c-3.8,0-6.4,4.1-6.4,10.8c0,6.8,2.6,10.9,6.4,10.9C60.7,433.6,63.3,429.5,63.3,422.7z M79,418.9v8.7h6.5
		v4.1H79v15.9H74v-43.4H79v10.6h6.5v4.1H79z"/>
	<path d="M112.2,422.8c0,9.4-4.7,15.3-11.1,15.3s-11.1-5.9-11.1-15.3c0-9.4,4.7-15.3,11.1-15.3S112.2,413.4,112.2,422.8z
		 M107.5,422.8c0-6.8-2.6-10.8-6.4-10.8c-3.8,0-6.4,4.1-6.4,10.8s2.6,10.8,6.4,10.8C104.8,433.6,107.5,429.5,107.5,422.8z
		 M129.9,425.3h-6.8v22.4h-4.9v-43.4h4.9v16.9h6.8V425.3z"/>
	<path d="M156.4,422.7c0,9.4-4.7,15.3-11.1,15.3s-11.1-5.9-11.1-15.3c0-9.3,4.7-15.3,11.1-15.3S156.4,413.4,156.4,422.7z
		 M151.6,422.7c0-6.7-2.6-10.8-6.4-10.8c-3.8,0-6.4,4.1-6.4,10.8c0,6.8,2.6,10.9,6.4,10.9C149,433.6,151.6,429.5,151.6,422.7z
		 M167.3,418.9v8.7h6.5v4.1h-6.5v15.9h-4.9v-43.4h4.9v10.6h6.5v4.1H167.3z"/>
	<path d="M213.9,404.2v43.5h-5v-23.3h-8.4c-0.6,8.4-5,13.6-10.9,13.6c-6.4,0-10.9-5.9-10.9-15.3c0-9.3,4.6-15.3,10.9-15.3
		c5.8,0,10.2,5,10.9,13h8.4v-16.2H213.9z M195.8,422.7c0-6.7-2.5-10.8-6.3-10.8c-3.7,0-6.2,4.1-6.2,10.8c0,6.9,2.5,10.9,6.2,10.9
		C193.3,433.6,195.8,429.6,195.8,422.7z"/>
	<path d="M258,404.2v43.5h-5v-16.5h-10c-1.8,4.3-5.2,6.8-9.4,6.8c-6.4,0-10.9-5.9-10.9-15.3c0-9.3,4.6-15.3,10.9-15.3
		c3.9,0,7.2,2.3,9.1,6.1h10.2v-9.4H258z M240,422.7c0-6.7-2.5-10.8-6.3-10.8c-3.7,0-6.3,4.1-6.3,10.8c0,6.8,2.6,10.9,6.3,10.9
		C237.4,433.6,240,429.5,240,422.7z M253.1,427.2v-9.5h-8.9c0.3,1.6,0.5,3.2,0.5,5c0,1.6-0.1,3.1-0.4,4.5H253.1z"/>
	<path d="M305.5,438.3v4h-39.3v-4h17.1V430c-7.9-0.7-13.4-5.1-13.4-11.5c0-7.1,6.7-11.6,15.9-11.6c9.2,0,15.9,4.6,15.9,11.6
		c0,6.4-5.6,10.8-13.5,11.6v8.3H305.5z M285.8,426.1c6.4,0,11.1-3,11.1-7.7s-4.7-7.7-11.1-7.7c-6.5,0-11.1,3-11.1,7.7
		S279.3,426.1,285.8,426.1z"/>
	<path d="M349.6,438.3v4h-39.3v-4h9.2V427c-3.5-1.9-5.5-5-5.5-8.9c0-6.9,6.7-11.3,15.9-11.3c9.2,0,15.9,4.4,15.9,11.3
		c0,3.8-2.1,6.9-5.5,8.9v11.3H349.6z M318.8,418.1c0,4.6,4.6,7.5,11.1,7.5c6.5,0,11.1-2.9,11.1-7.5c0-4.6-4.6-7.4-11.1-7.4
		C323.4,410.7,318.8,413.6,318.8,418.1z M324.5,438.3h10.9v-9.5c-1.7,0.4-3.6,0.6-5.5,0.6c-1.9,0-3.8-0.2-5.5-0.6V438.3z"/>
	<path d="M393.8,432.9h-17.3v14.7h-4.9v-14.7h-17v-4.1h39.3V432.9z M358.6,415.5c0-5.9,6.2-9.6,15.4-9.6c9.1,0,15.4,3.7,15.4,9.6
		c0,5.9-6.2,9.6-15.4,9.6C364.9,425.1,358.6,421.4,358.6,415.5z M363.7,415.5c0,3.6,4.1,5.7,10.3,5.7c6.2,0,10.3-2.1,10.3-5.7
		c0-3.5-4.1-5.6-10.3-5.6C367.8,409.9,363.7,412,363.7,415.5z"/>
	<path d="M438,432.8h-9.8v14.8h-5v-14.8h-9.9v14.8h-5v-14.8h-9.6v-4.1h39.3L438,432.8z M402.8,415.4c0-5.8,6.2-9.6,15.4-9.6
		c9.1,0,15.4,3.7,15.4,9.6c0,5.9-6.2,9.6-15.4,9.6C409,425,402.8,421.3,402.8,415.4z M407.9,415.4c0,3.5,4.1,5.6,10.3,5.6
		c6.2,0,10.3-2.1,10.3-5.6c0-3.5-4.1-5.6-10.3-5.6C412,409.9,407.9,412,407.9,415.4z"/>
	<path d="M482.1,438.1v4.1h-39.3v-4.1H482.1z M478.4,419c0,7.4-6.9,12.2-15.9,12.2c-9.1,0-15.9-4.8-15.9-12.2
		c0-7.3,6.9-12.2,15.9-12.2C471.4,406.7,478.4,411.6,478.4,419z M451.3,419c0,5,4.7,8.2,11.1,8.2c6.4,0,11.1-3.2,11.1-8.2
		s-4.8-8.2-11.1-8.2C456,410.8,451.3,414,451.3,419z"/>
	<path d="M510.8,422.7c0,9.4-4.7,15.3-11.2,15.3c-6.4,0-11.1-5.9-11.1-15.3c0-9.3,4.7-15.3,11.1-15.3
		C506.1,407.5,510.8,413.4,510.8,422.7z M493.2,422.7c0,6.8,2.6,10.9,6.4,10.9c3.8,0,6.4-4.1,6.4-10.9c0-6.7-2.6-10.8-6.4-10.8
		C495.8,411.9,493.2,416,493.2,422.7z M522.7,404.2v43.5h-5v-43.5H522.7z"/>
</g>
</svg>
