<?xml version="1.0" encoding="utf-8"?>
<!-- Generator: Adobe Illustrator 16.0.0, SVG Export Plug-In . SVG Version: 6.00 Build 0)  -->
<!DOCTYPE svg PUBLIC "-//W3C//DTD SVG 1.1//EN" "http://www.w3.org/Graphics/SVG/1.1/DTD/svg11.dtd">
<svg version="1.1" id="Layer_1" xmlns="http://www.w3.org/2000/svg" xmlns:xlink="http://www.w3.org/1999/xlink" x="0px" y="0px"
	 width="1200px" height="200px" viewBox="0 0 1200 200" enable-background="new 0 0 1200 200" xml:space="preserve">
<g>
	<path d="M256.588,75.958h-2.178v49.724c-0.556-0.541-1.236-0.988-2.052-1.35c-1.07-0.463-2.316-0.698-3.743-0.698
		c-1.425,0-2.826,0.214-4.203,0.636c-1.38,0.424-2.674,1.024-3.876,1.799c-1.201,0.783-2.26,1.688-3.171,2.707
		c-0.913,1.024-1.595,2.142-2.04,3.346c-0.441,1.195-0.597,2.32-0.465,3.367c0.137,1.048,0.523,1.973,1.168,2.771
		c0.648,0.803,1.488,1.432,2.536,1.903c1.047,0.471,2.283,0.7,3.708,0.7c1.38,0,2.773-0.211,4.173-0.635
		c1.408-0.424,2.708-1.022,3.909-1.797c1.202-0.783,2.271-1.695,3.206-2.744c0.928-1.047,1.624-2.17,2.069-3.371
		c0.385-1.041,0.532-2.021,0.465-2.937h0.493L256.588,75.958L256.588,75.958z"/>
	<path d="M310.588,67.625h-2.178v49.725c-0.556-0.541-1.236-0.99-2.052-1.351c-1.07-0.463-2.316-0.698-3.743-0.698
		c-1.425,0-2.826,0.213-4.203,0.637c-1.38,0.422-2.674,1.023-3.876,1.799c-1.201,0.783-2.26,1.688-3.171,2.705
		c-0.913,1.025-1.595,2.143-2.04,3.347c-0.441,1.196-0.597,2.321-0.465,3.37c0.137,1.045,0.523,1.97,1.168,2.771
		c0.648,0.801,1.488,1.43,2.536,1.901c1.047,0.472,2.283,0.702,3.708,0.702c1.38,0,2.773-0.213,4.173-0.639
		c1.408-0.424,2.708-1.021,3.909-1.797c1.202-0.783,2.271-1.695,3.206-2.744c0.928-1.047,1.624-2.17,2.069-3.371
		c0.385-1.039,0.532-2.019,0.465-2.935h0.493L310.588,67.625L310.588,67.625z"/>
	<path d="M364.588,59.292h-2.178v49.724c-0.556-0.541-1.236-0.988-2.052-1.35c-1.07-0.463-2.316-0.697-3.743-0.697
		c-1.425,0-2.826,0.213-4.203,0.635c-1.38,0.424-2.674,1.024-3.876,1.799c-1.201,0.783-2.26,1.688-3.171,2.707
		c-0.913,1.024-1.595,2.142-2.04,3.346c-0.441,1.195-0.597,2.32-0.465,3.367c0.137,1.048,0.523,1.973,1.168,2.771
		c0.648,0.801,1.488,1.43,2.536,1.902c1.047,0.471,2.283,0.701,3.708,0.701c1.38,0,2.773-0.211,4.173-0.635
		c1.408-0.424,2.708-1.023,3.909-1.797c1.202-0.783,2.271-1.695,3.206-2.744c0.928-1.047,1.624-2.17,2.069-3.371
		c0.385-1.041,0.532-2.021,0.465-2.938h0.493L364.588,59.292L364.588,59.292z"/>
	<path d="M418.589,50.959h-2.178v49.725c-0.556-0.542-1.236-0.99-2.052-1.351c-1.07-0.463-2.316-0.698-3.743-0.698
		c-1.425,0-2.826,0.213-4.203,0.636c-1.38,0.423-2.674,1.024-3.876,1.799c-1.201,0.783-2.26,1.686-3.171,2.705
		c-0.913,1.023-1.595,2.141-2.04,3.345c-0.441,1.198-0.597,2.323-0.465,3.37c0.137,1.045,0.523,1.97,1.168,2.77
		c0.648,0.801,1.488,1.43,2.536,1.903c1.047,0.471,2.283,0.702,3.708,0.702c1.38,0,2.773-0.211,4.173-0.637
		c1.408-0.424,2.708-1.022,3.909-1.797c1.202-0.783,2.271-1.695,3.206-2.744c0.928-1.047,1.624-2.17,2.069-3.371
		c0.385-1.039,0.532-2.021,0.465-2.937h0.493L418.589,50.959L418.589,50.959z"/>
	<g>
		<polygon points="418.589,52.958 254.41,77.958 254.41,67.958 418.589,42.958 		"/>
	</g>
	<path d="M473.088,42.958h-2.178v49.724c-0.557-0.541-1.236-0.989-2.052-1.35c-1.07-0.463-2.316-0.698-3.743-0.698
		c-1.425,0-2.826,0.213-4.203,0.636c-1.38,0.423-2.674,1.024-3.876,1.799c-1.201,0.783-2.26,1.686-3.171,2.706
		c-0.913,1.025-1.598,2.14-2.04,3.344c-0.441,1.198-0.597,2.322-0.465,3.369c0.137,1.046,0.521,1.971,1.168,2.771
		c0.646,0.799,1.485,1.43,2.536,1.901c1.047,0.471,2.28,0.7,3.707,0.7c1.381,0,2.771-0.211,4.174-0.635
		c1.408-0.424,2.708-1.022,3.908-1.797c1.2-0.783,2.271-1.695,3.204-2.744c0.931-1.047,1.624-2.17,2.069-3.373
		c0.385-1.04,0.532-2.019,0.465-2.935h0.493L473.088,42.958L473.088,42.958z"/>
	<path d="M527.088,50.959h-2.178v49.725c-0.557-0.542-1.236-0.99-2.052-1.351c-1.07-0.463-2.316-0.698-3.743-0.698
		c-1.425,0-2.826,0.213-4.203,0.636c-1.38,0.423-2.674,1.024-3.876,1.799c-1.201,0.783-2.26,1.686-3.171,2.705
		c-0.913,1.023-1.596,2.141-2.04,3.345c-0.441,1.198-0.597,2.323-0.465,3.37c0.137,1.045,0.521,1.97,1.168,2.77
		c0.646,0.801,1.485,1.43,2.536,1.903c1.047,0.471,2.28,0.702,3.708,0.702c1.38,0,2.771-0.211,4.173-0.637
		c1.408-0.424,2.708-1.022,3.908-1.797c1.2-0.783,2.271-1.695,3.204-2.744c0.931-1.047,1.624-2.17,2.069-3.371
		c0.385-1.039,0.532-2.021,0.465-2.937h0.493L527.088,50.959L527.088,50.959z"/>
	<path d="M581.088,59.292h-2.178v49.724c-0.557-0.541-1.236-0.988-2.052-1.35c-1.07-0.463-2.316-0.697-3.743-0.697
		c-1.425,0-2.826,0.213-4.203,0.635c-1.38,0.424-2.674,1.024-3.876,1.799c-1.201,0.783-2.26,1.688-3.171,2.707
		c-0.913,1.024-1.595,2.142-2.04,3.346c-0.441,1.195-0.597,2.32-0.465,3.367c0.137,1.048,0.521,1.973,1.168,2.771
		c0.646,0.801,1.485,1.43,2.536,1.902c1.047,0.471,2.28,0.701,3.708,0.701c1.38,0,2.771-0.211,4.173-0.635
		c1.408-0.424,2.708-1.023,3.909-1.797c1.199-0.783,2.271-1.695,3.206-2.744c0.928-1.047,1.621-2.17,2.066-3.371
		c0.385-1.041,0.532-2.021,0.465-2.938h0.493L581.088,59.292L581.088,59.292z"/>
	<path d="M635.089,67.625h-2.178v49.725c-0.556-0.541-1.236-0.99-2.052-1.351c-1.07-0.463-2.316-0.698-3.743-0.698
		c-1.425,0-2.826,0.213-4.203,0.637c-1.38,0.422-2.674,1.023-3.876,1.799c-1.201,0.783-2.26,1.688-3.171,2.705
		c-0.913,1.025-1.595,2.143-2.04,3.347c-0.441,1.196-0.597,2.321-0.465,3.37c0.137,1.045,0.521,1.97,1.168,2.771
		c0.646,0.801,1.485,1.43,2.536,1.901c1.047,0.472,2.28,0.702,3.708,0.702c1.38,0,2.771-0.213,4.173-0.639
		c1.408-0.424,2.708-1.021,3.909-1.797c1.199-0.783,2.271-1.695,3.205-2.744c0.929-1.047,1.625-2.17,2.067-3.371
		c0.385-1.039,0.532-2.019,0.465-2.935h0.493L635.089,67.625L635.089,67.625z"/>
	<g>
		<polygon points="635.089,69.958 470.91,44.958 470.91,34.958 635.089,59.958 		"/>
	</g>
	<g>
		<path d="M720.364,124.797c-0.029-0.021-0.056-0.049-0.082-0.068c-0.513-0.338-1.047-0.604-1.604-0.801
			c-0.554-0.199-1.101-0.338-1.633-0.4c-0.537-0.066-0.979-0.123-1.338-0.17c-1.867-0.221-3.549-0.149-5.041,0.201
			c-1.49,0.354-2.752,0.822-3.773,1.4c-1.021,0.625-2.11,1.496-3.269,2.605c-1.16,1.113-2.05,2.519-2.675,4.205
			c-0.133,0.354-0.269,0.77-0.398,1.233c-0.132,0.465-0.233,0.979-0.303,1.535c-0.066,0.558-0.066,1.135,0,1.733
			c0.066,0.602,0.277,1.195,0.636,1.77c0.313,0.537,0.747,0.979,1.302,1.338c0.56,0.354,1.139,0.648,1.739,0.867
			c0.602,0.229,1.202,0.382,1.802,0.477c0.602,0.086,1.123,0.148,1.568,0.194c3.029,0.269,5.631-0.155,7.813-1.271
			c1.021-0.484,2.155-1.375,3.401-2.664c1.247-1.295,2.182-2.787,2.809-4.479c0.134-0.312,0.267-0.733,0.396-1.267
			c0.136-0.535,0.237-1.104,0.304-1.705c0.008-0.055,0.006-0.109,0.012-0.168h0.511V75.946h-2.177V124.797L720.364,124.797z
			 M720.285,128.865c-0.113,0.558-0.35,1.08-0.702,1.57c-0.359,0.492-0.792,0.936-1.299,1.336c-0.521,0.397-0.994,0.754-1.438,1.066
			c-0.717,0.486-1.372,0.912-1.973,1.271c-0.6,0.354-1.235,0.713-1.905,1.072c-0.665,0.348-1.324,0.705-1.968,1.063
			c-0.646,0.355-1.345,0.709-2.104,1.064c-0.535,0.27-1.115,0.51-1.736,0.729c-0.625,0.229-1.234,0.374-1.837,0.438
			c-0.604,0.064-1.171,0.01-1.7-0.166c-0.536-0.182-0.959-0.539-1.271-1.067c-0.309-0.534-0.414-1.083-0.299-1.64
			c0.107-0.561,0.34-1.078,0.701-1.565c0.352-0.494,0.787-0.937,1.303-1.336c0.508-0.399,1.017-0.761,1.502-1.069
			c1.334-0.887,2.646-1.695,3.939-2.402c0.666-0.355,1.303-0.711,1.906-1.067c0.6-0.354,1.274-0.71,2.028-1.063
			c0.537-0.269,1.118-0.515,1.735-0.736c0.625-0.225,1.236-0.355,1.839-0.399c0.604-0.044,1.158,0.021,1.67,0.202
			c0.513,0.178,0.946,0.536,1.304,1.066C720.298,127.77,720.396,128.311,720.285,128.865z"/>
		<path d="M737.195,121.126c-0.643-0.62-1.434-0.931-2.372-0.931c-0.939,0-1.732,0.311-2.374,0.931
			c-0.643,0.618-0.96,1.379-0.96,2.272c0,0.896,0.317,1.668,0.96,2.313c0.642,0.641,1.433,0.958,2.374,0.958
			c0.938,0,1.729-0.317,2.372-0.958c0.64-0.645,0.966-1.413,0.966-2.313C738.161,122.505,737.835,121.744,737.195,121.126z"/>
	</g>
</g>
<path d="M336.79,95.506h-1.782v8.98l-6.033,1.968v-9.412h-1.783v10.032l-2.645,0.857v6.34l2.645-0.86v9.171l-2.645,0.863v6.4
	l2.645-0.863v8.496h1.783v-9.113l6.033-1.971v9.476h1.782v-10.022l2.403-0.805v-6.341l-2.403,0.739v-9.109l2.403-0.795v-6.405
	l-2.403,0.802V95.506z M335.008,120.057l-6.033,1.975v-9.174l6.033-1.967V120.057z"/>
<path d="M283.098,102.506h-1.782v8.98l-6.033,1.968v-9.412H273.5v10.032l-2.645,0.857v6.34l2.645-0.86v9.171l-2.645,0.863v6.4
	l2.645-0.863v8.496h1.783v-9.113l6.033-1.971v9.476h1.782v-10.022l2.403-0.805v-6.341l-2.403,0.739v-9.109l2.403-0.795v-6.405
	l-2.403,0.802V102.506z M281.316,127.057l-6.033,1.975v-9.174l6.033-1.967V127.057z"/>
</svg>
