<?xml version="1.0" encoding="utf-8"?>
<!-- Generator: Adobe Illustrator 16.0.0, SVG Export Plug-In . SVG Version: 6.00 Build 0)  -->
<!DOCTYPE svg PUBLIC "-//W3C//DTD SVG 1.1//EN" "http://www.w3.org/Graphics/SVG/1.1/DTD/svg11.dtd">
<svg version="1.1" id="Layer_1" xmlns="http://www.w3.org/2000/svg" xmlns:xlink="http://www.w3.org/1999/xlink" x="0px" y="0px"
	 width="1200px" height="200px" viewBox="0 0 1200 200" enable-background="new 0 0 1200 200" xml:space="preserve">
<g>
	<g>
		<g>
			<path d="M155.893,136.527c0.215,1.279,0.41,2.507,0.58,3.684c0.167,1.174,0.296,1.912,0.385,2.212
				c0.215,1.796,0.32,3.582,0.32,5.354s-0.3,3.216-0.9,4.326c-0.939,1.666-2.271,3.057-4.006,4.166
				c-1.729,1.11-3.533,1.666-5.413,1.666c-1.798,0-3.294-0.265-4.49-0.803c-1.195-0.535-2.009-1.098-2.436-1.697
				c2.646-0.724,4.526-1.822,5.642-3.299c1.109-1.475,1.605-3.004,1.476-4.58c-0.088-0.902-0.344-1.736-0.77-2.507
				c-0.429-0.771-0.984-1.409-1.666-1.925c-0.684-0.509-1.423-0.906-2.212-1.186c-0.794-0.277-1.57-0.392-2.344-0.351
				c-1.277,0.085-2.363,0.403-3.237,0.964c-0.873,0.555-1.58,1.248-2.114,2.082c-0.535,0.836-0.911,1.771-1.119,2.819
				c-0.217,1.047-0.28,2.082-0.196,3.108c0.134,1.75,0.707,3.226,1.736,4.424c1.021,1.197,2.24,2.146,3.652,2.854
				c1.406,0.704,2.883,1.193,4.424,1.477c1.533,0.275,2.858,0.373,3.975,0.287c1.451-0.09,2.741-0.346,3.874-0.77
				c1.133-0.426,2.127-0.962,2.983-1.604c0.854-0.642,1.592-1.367,2.209-2.179c0.621-0.813,1.167-1.646,1.635-2.5
				c0.555-1.026,0.876-2.362,0.964-4.007c0.083-1.646-0.065-3.752-0.451-6.314c-0.085-0.469-0.211-1.316-0.382-2.535
				c-0.174-1.213-0.365-2.471-0.581-3.746c-0.214-1.498-0.447-3.121-0.703-4.87c2.18-0.899,4.069-2.032,5.672-3.397
				c1.606-1.371,2.905-2.879,3.912-4.521c1.001-1.646,1.72-3.381,2.146-5.195c0.429-1.814,0.576-3.622,0.451-5.414
				c-0.175-2.311-0.738-4.563-1.697-6.763c-0.967-2.203-2.6-4.154-4.906-5.861c-0.469-0.304-1.101-0.621-1.893-0.966
				c-0.791-0.34-1.687-0.618-2.69-0.833c-1.004-0.213-2.054-0.372-3.143-0.479c-1.092-0.107-2.146-0.098-3.173,0.03
				c0-0.083-0.046-0.327-0.127-0.737c-0.089-0.404-0.174-0.92-0.259-1.537c-0.088-0.621-0.193-1.291-0.318-2.019
				c-0.13-0.729-0.26-1.477-0.386-2.246c-0.299-1.752-0.641-3.72-1.024-5.897c0.809-0.729,1.635-1.401,2.468-2.018
				c0.833-0.619,1.635-1.402,2.404-2.343c0.727-0.895,1.445-1.782,2.146-2.663c0.707-0.872,1.399-1.891,2.085-3.041
				c0.641-1.157,1.252-2.297,1.826-3.43c0.577-1.132,1.083-2.374,1.508-3.719c0.426-1.351,0.745-2.864,0.96-4.555
				c0.214-1.685,0.303-3.641,0.258-5.864c-0.045-0.936-0.183-2.029-0.416-3.267c-0.236-1.242-0.545-2.497-0.93-3.782
				c-0.386-1.284-0.833-2.534-1.348-3.75c-0.511-1.22-1.034-2.312-1.571-3.27c-0.53-0.965-1.077-1.731-1.633-2.309
				c-0.556-0.576-1.067-0.868-1.54-0.868c-0.939,0-1.943,0.56-3.01,1.67c-1.073,1.112-2.082,2.436-3.047,3.976
				c-0.959,1.539-1.793,3.131-2.498,4.773c-0.707,1.643-1.168,3.005-1.379,4.071c-0.344,1.795-0.555,3.526-0.641,5.193
				c-0.089,1.664-0.119,3.147-0.094,4.455c0.019,1.301,0.071,2.412,0.157,3.334c0.085,0.917,0.127,1.549,0.127,1.889
				c0.045,0.812,0.12,1.496,0.227,2.051c0.107,0.555,0.204,1.059,0.289,1.508c0.082,0.448,0.158,0.887,0.221,1.313
				c0.063,0.431,0.12,0.923,0.161,1.477c-2.009,1.495-3.858,2.959-5.543,4.392c-1.692,1.434-3.3,2.877-4.843,4.325
				c-1.326,1.285-2.641,2.78-3.941,4.489c-1.306,1.711-2.46,3.577-3.464,5.609c-1.003,2.029-1.793,4.158-2.373,6.378
				c-0.573,2.223-0.775,4.441-0.604,6.666c0.126,2.053,0.415,4.094,0.863,6.125c0.449,2.024,1.23,4.004,2.342,5.924
				c1.109,1.93,2.682,3.773,4.714,5.549c2.027,1.775,4.687,3.451,7.979,5.033c0.68,0.342,1.566,0.606,2.662,0.801
				c1.09,0.189,2.274,0.342,3.555,0.445c1.284,0.11,2.594,0.143,3.945,0.098c1.344-0.04,2.614-0.168,3.813-0.387
				C155.424,133.361,155.683,135.029,155.893,136.527 M158.265,50.881c0.474,0.385,0.858,0.853,1.158,1.405
				c0.296,0.563,0.507,1.159,0.641,1.8c0.126,0.645,0.211,1.219,0.251,1.731c0.133,1.58-0.201,3.25-0.99,5
				c-0.791,1.753-1.816,3.484-3.079,5.193c-1.259,1.706-2.655,3.322-4.199,4.84c-1.536,1.517-3.013,2.807-4.423,3.879
				c-0.383-2.65-0.445-5.41-0.193-8.272c0.259-2.864,0.782-5.492,1.57-7.886c0.796-2.393,1.818-4.367,3.079-5.93
				c1.257-1.562,2.727-2.34,4.393-2.34C157.199,50.303,157.799,50.496,158.265,50.881 M152.754,106.525
				c2.35-0.133,4.23,0.158,5.642,0.863c1.409,0.707,2.501,1.594,3.271,2.661c0.767,1.067,1.291,2.181,1.568,3.332
				c0.277,1.155,0.457,2.115,0.546,2.886c0.044,0.94,0.03,2.006-0.033,3.205c-0.063,1.197-0.34,2.389-0.832,3.588
				c-0.492,1.195-1.249,2.312-2.274,3.336c-1.028,1.024-2.458,1.855-4.298,2.502L152.754,106.525z M151.089,106.65
				c0.17,1.324,0.35,2.522,0.542,3.59c0.192,1.068,0.397,2.287,0.609,3.652c0.214,1.369,0.451,2.762,0.706,4.168
				c0.556,3.336,1.175,7.115,1.861,11.348c-3.167,0.771-6.222,0.846-9.168,0.226c-2.952-0.622-5.581-1.72-7.887-3.303
				c-2.31-1.578-4.196-3.535-5.672-5.866c-1.477-2.326-2.297-4.838-2.468-7.529c-0.215-2.395,0.104-4.615,0.96-6.67
				c0.854-2.052,2.05-4.298,3.59-6.732c0.852-1.321,1.956-2.7,3.3-4.13c1.352-1.436,2.707-2.767,4.072-4.012
				c1.367-1.235,2.629-2.305,3.783-3.202c1.154-0.896,1.988-1.496,2.498-1.796l1.924,11.604c-0.466,0.13-0.908,0.248-1.315,0.354
				c-0.406,0.104-0.8,0.256-1.182,0.448c-0.386,0.192-0.802,0.416-1.253,0.671c-0.45,0.26-0.952,0.601-1.505,1.03
				c-1.069,0.854-2,1.764-2.789,2.723c-0.792,0.961-1.432,1.952-1.921,2.98c-0.495,1.027-0.848,2.043-1.06,3.047
				c-0.211,1.003-0.277,1.956-0.192,2.854c0.044,0.938,0.139,1.752,0.291,2.437c0.147,0.685,0.328,1.313,0.542,1.89
				c0.215,0.576,0.492,1.125,0.833,1.635c0.341,0.513,0.745,1.094,1.219,1.731c0.3,0.386,0.953,1.017,1.955,1.89
				c1.003,0.873,2.171,1.637,3.496,2.278l0.193-0.259l0.224-0.225l0.225-0.222c-0.604-0.305-1.19-0.739-1.764-1.315
				c-0.578-0.576-1.111-1.217-1.604-1.926c-0.492-0.703-0.889-1.465-1.186-2.272c-0.3-0.81-0.471-1.604-0.512-2.373
				c-0.046-0.771,0.051-1.644,0.284-2.632c0.24-0.977,0.688-1.911,1.35-2.786c0.662-0.872,1.559-1.62,2.688-2.241
				C147.894,107.092,149.334,106.74,151.089,106.65"/>
		</g>
	</g>
	<g>
		<g>
			<path d="M203.363,122.419v-1.791h-4.619v-16.476l-7.82,8.593v7.884h-9.938c1.543-1.793,3.205-3.686,5-5.672
				c1.798-1.988,3.527-3.934,5.193-5.834c1.67-1.9,3.175-3.7,4.518-5.387c1.35-1.689,2.344-3.15,2.984-4.39h-11.094
				c-0.295,1.582-0.564,2.979-0.802,4.197c-0.232,1.221-0.498,2.341-0.801,3.369c-0.297,1.027-0.638,2.02-1.022,2.982
				c-0.385,0.957-0.89,1.994-1.508,3.105c-0.622,1.109-1.379,2.318-2.278,3.624c-0.896,1.306-1.984,2.831-3.269,4.582l1.154,1.216
				h11.86v4.365c0,0.638-0.158,1.115-0.482,1.439c-0.318,0.32-0.669,0.543-1.054,0.672c-0.474,0.172-0.983,0.256-1.54,0.256v1.668
				h13.912v-1.668c-0.555,0-1.072-0.084-1.54-0.256c-0.386-0.168-0.731-0.428-1.027-0.769c-0.3-0.345-0.448-0.837-0.448-1.478
				v-4.231h4.62L203.363,122.419L203.363,122.419z"/>
		</g>
	</g>
	<g>
		<g>
			<path d="M203.363,90.369v-1.794h-4.619V72.101l-7.82,8.59v7.885h-9.938c1.543-1.793,3.205-3.687,5-5.673
				c1.798-1.988,3.527-3.933,5.193-5.832c1.67-1.904,3.175-3.7,4.518-5.387c1.35-1.69,2.344-3.151,2.984-4.39h-11.094
				c-0.295,1.58-0.564,2.977-0.802,4.195c-0.232,1.222-0.498,2.34-0.801,3.369c-0.297,1.029-0.638,2.02-1.022,2.982
				c-0.385,0.958-0.89,1.996-1.508,3.107c-0.622,1.111-1.379,2.318-2.278,3.621c-0.896,1.301-1.984,2.834-3.269,4.585l1.154,1.217
				h11.86v4.364c0,0.635-0.158,1.114-0.482,1.437c-0.318,0.323-0.669,0.545-1.054,0.673c-0.474,0.172-0.983,0.257-1.54,0.257v1.67
				h13.912v-1.67c-0.555,0-1.072-0.085-1.54-0.257c-0.386-0.171-0.731-0.426-1.027-0.768c-0.3-0.343-0.448-0.836-0.448-1.477V90.37
				L203.363,90.369L203.363,90.369L203.363,90.369z"/>
		</g>
	</g>
	<rect x="1069.447" y="67.292" width="3" height="64.104"/>
	<rect x="1079.091" y="67.292" width="3" height="64.104"/>
	<rect x="675.271" y="67.292" width="3" height="64.104"/>
	<g>
		<g>
			<path d="M1082.091,131.941H117.909v-1.09h964.182V131.941L1082.091,131.941z M1082.091,115.915H117.909v-1.089h964.182V115.915
				L1082.091,115.915z M1082.091,99.89H117.909v-1.089h964.182V99.89L1082.091,99.89z M1082.091,83.862H117.909v-1.089h964.182
				V83.862L1082.091,83.862z M1082.091,67.836H117.909v-1.089h964.182V67.836L1082.091,67.836z"/>
		</g>
	</g>
	<g>
		<path d="M987.241,113.168l0.126-1.029c0-0.084-0.139-0.297-0.416-0.641s-0.584-0.717-0.928-1.119
			c-0.347-0.408-0.707-0.814-1.093-1.219c-0.385-0.409-0.661-0.741-0.833-0.998c-0.341-0.426-0.724-0.926-1.155-1.504
			c-0.43-0.575-0.813-1.199-1.151-1.857c-0.345-0.662-0.635-1.369-0.868-2.121c-0.229-0.744-0.349-1.527-0.349-2.335
			c0-1.151,0.273-2.381,0.827-3.686c0.557-1.303,1.202-2.512,1.926-3.621c0.771-1.325,1.688-2.629,2.762-3.909l-11.67-14.683
			l-0.901,0.637c0.814,1.284,1.564,2.506,2.246,3.66c0.556,1.023,1.065,2.082,1.537,3.176c0.467,1.09,0.711,1.994,0.711,2.718
			c0,1.157-0.246,2.334-0.711,3.53c-0.472,1.195-1.002,2.329-1.6,3.398c-0.602,1.069-1.21,1.995-1.834,2.789
			c-0.616,0.787-1.076,1.378-1.371,1.761c-0.262,0.599,0.393,1.882,1.953,3.848c1.559,1.966,3.874,4.442,6.952,7.435
			c-0.258-0.039-0.582-0.097-0.984-0.16c-0.415-0.063-0.839-0.127-1.294-0.191c-0.443-0.068-0.906-0.107-1.376-0.13
			c-0.474-0.022-0.876-0.03-1.212-0.03c-0.898,0.088-1.701,0.309-2.408,0.676c-0.703,0.358-1.279,0.83-1.729,1.405
			c-0.451,0.58-0.771,1.229-0.966,1.955c-0.188,0.728-0.222,1.451-0.097,2.181c0.172,1.196,0.695,2.344,1.572,3.428
			c0.876,1.093,1.803,2.064,2.79,2.92c1.152,1.023,2.435,1.965,3.839,2.82l0.771-0.641c-0.64-0.602-1.194-1.201-1.666-1.799
			c-0.43-0.512-0.803-1.066-1.123-1.665c-0.313-0.599-0.477-1.132-0.477-1.603c0-1.498,0.477-2.651,1.441-3.463
			c0.959-0.812,2.127-1.218,3.495-1.218c0.681,0,1.45,0.099,2.303,0.288C985.15,112.367,986.125,112.693,987.241,113.168"/>
	</g>
</g>
</svg>
