<?xml version="1.0" encoding="utf-8"?>
<!-- Generator: Adobe Illustrator 16.0.0, SVG Export Plug-In . SVG Version: 6.00 Build 0)  -->
<!DOCTYPE svg PUBLIC "-//W3C//DTD SVG 1.1//EN" "http://www.w3.org/Graphics/SVG/1.1/DTD/svg11.dtd">
<svg version="1.1" id="Layer_1" xmlns="http://www.w3.org/2000/svg" xmlns:xlink="http://www.w3.org/1999/xlink" x="0px" y="0px"
	 width="1200px" height="200px" viewBox="0 0 1200 200" enable-background="new 0 0 1200 200" xml:space="preserve">
<g>
	<path d="M256.588,91.958h-2.178v49.724c-0.556-0.541-1.236-0.988-2.052-1.35c-1.07-0.463-2.316-0.698-3.743-0.698
		c-1.425,0-2.826,0.214-4.203,0.636c-1.38,0.424-2.674,1.024-3.876,1.799c-1.201,0.783-2.26,1.687-3.171,2.707
		c-0.913,1.024-1.595,2.14-2.04,3.344c-0.441,1.197-0.597,2.322-0.465,3.369c0.137,1.046,0.523,1.971,1.168,2.771
		c0.648,0.802,1.488,1.431,2.536,1.903c1.047,0.471,2.283,0.701,3.708,0.701c1.38,0,2.773-0.211,4.173-0.635
		c1.408-0.424,2.708-1.023,3.909-1.797c1.202-0.783,2.271-1.695,3.206-2.744c0.928-1.047,1.624-2.17,2.069-3.371
		c0.385-1.041,0.532-2.02,0.465-2.936h0.493L256.588,91.958L256.588,91.958z"/>
	<path d="M310.588,83.625h-2.178v49.725c-0.556-0.541-1.236-0.99-2.052-1.351c-1.07-0.463-2.316-0.698-3.743-0.698
		c-1.425,0-2.826,0.213-4.203,0.637c-1.38,0.422-2.674,1.023-3.876,1.799c-1.201,0.783-2.26,1.686-3.171,2.705
		c-0.913,1.025-1.595,2.141-2.04,3.345c-0.441,1.198-0.597,2.323-0.465,3.37c0.137,1.045,0.523,1.97,1.168,2.77
		c0.648,0.801,1.488,1.43,2.536,1.903c1.047,0.471,2.283,0.702,3.708,0.702c1.38,0,2.773-0.211,4.173-0.637
		c1.408-0.424,2.708-1.022,3.909-1.797c1.202-0.783,2.271-1.695,3.206-2.744c0.928-1.047,1.624-2.17,2.069-3.371
		c0.385-1.039,0.532-2.019,0.465-2.935h0.493L310.588,83.625L310.588,83.625z"/>
	<path d="M364.588,75.292h-2.178v49.724c-0.556-0.541-1.236-0.988-2.052-1.35c-1.07-0.463-2.316-0.697-3.743-0.697
		c-1.425,0-2.826,0.213-4.203,0.635c-1.38,0.424-2.674,1.024-3.876,1.799c-1.201,0.783-2.26,1.687-3.171,2.707
		c-0.913,1.024-1.595,2.14-2.04,3.344c-0.441,1.197-0.597,2.322-0.465,3.369c0.137,1.046,0.523,1.971,1.168,2.771
		c0.648,0.801,1.488,1.43,2.536,1.902c1.047,0.471,2.283,0.701,3.708,0.701c1.38,0,2.773-0.211,4.173-0.635
		c1.408-0.424,2.708-1.023,3.909-1.797c1.202-0.783,2.271-1.695,3.206-2.744c0.928-1.047,1.624-2.17,2.069-3.371
		c0.385-1.041,0.532-2.02,0.465-2.936h0.493L364.588,75.292L364.588,75.292z"/>
	<path d="M418.589,66.959h-2.178v49.725c-0.556-0.541-1.236-0.99-2.052-1.351c-1.07-0.463-2.316-0.698-3.743-0.698
		c-1.425,0-2.826,0.213-4.203,0.637c-1.38,0.422-2.674,1.023-3.876,1.799c-1.201,0.783-2.26,1.686-3.171,2.705
		c-0.913,1.025-1.595,2.141-2.04,3.345c-0.441,1.198-0.597,2.323-0.465,3.37c0.137,1.045,0.523,1.97,1.168,2.77
		c0.648,0.801,1.488,1.43,2.536,1.903c1.047,0.471,2.283,0.702,3.708,0.702c1.38,0,2.773-0.211,4.173-0.637
		c1.408-0.424,2.708-1.022,3.909-1.797c1.202-0.783,2.271-1.695,3.206-2.744c0.928-1.047,1.624-2.17,2.069-3.371
		c0.385-1.039,0.532-2.019,0.465-2.935h0.493L418.589,66.959L418.589,66.959z"/>
	<g>
		<polygon points="418.589,68.958 254.41,93.958 254.41,83.958 418.589,58.958 		"/>
	</g>
	<path d="M473.088,58.958h-2.178v49.724c-0.557-0.541-1.236-0.988-2.052-1.35c-1.07-0.463-2.316-0.698-3.743-0.698
		c-1.425,0-2.826,0.214-4.203,0.636c-1.38,0.424-2.674,1.024-3.876,1.799c-1.201,0.783-2.26,1.687-3.171,2.707
		c-0.913,1.024-1.596,2.14-2.04,3.344c-0.441,1.197-0.597,2.322-0.465,3.369c0.137,1.046,0.522,1.971,1.168,2.771
		c0.647,0.802,1.487,1.431,2.536,1.903c1.047,0.471,2.282,0.701,3.707,0.701c1.381,0,2.773-0.211,4.174-0.635
		c1.408-0.424,2.708-1.023,3.908-1.797c1.202-0.783,2.271-1.695,3.206-2.744c0.929-1.047,1.624-2.17,2.069-3.371
		c0.385-1.041,0.532-2.02,0.465-2.936h0.493L473.088,58.958L473.088,58.958z"/>
	<path d="M527.088,66.959h-2.178v49.725c-0.557-0.541-1.236-0.99-2.052-1.351c-1.07-0.463-2.316-0.698-3.743-0.698
		c-1.425,0-2.826,0.213-4.203,0.637c-1.38,0.422-2.674,1.023-3.876,1.799c-1.201,0.783-2.26,1.686-3.171,2.705
		c-0.913,1.025-1.596,2.141-2.04,3.345c-0.441,1.198-0.597,2.323-0.465,3.37c0.137,1.045,0.522,1.97,1.168,2.77
		c0.647,0.801,1.487,1.43,2.536,1.903c1.047,0.471,2.282,0.702,3.708,0.702c1.38,0,2.772-0.211,4.173-0.637
		c1.408-0.424,2.708-1.022,3.908-1.797c1.202-0.783,2.271-1.695,3.206-2.744c0.929-1.047,1.624-2.17,2.069-3.371
		c0.385-1.039,0.532-2.019,0.465-2.935h0.493L527.088,66.959L527.088,66.959z"/>
	<path d="M581.088,75.292h-2.178v49.724c-0.557-0.541-1.236-0.988-2.052-1.35c-1.07-0.463-2.316-0.697-3.743-0.697
		c-1.425,0-2.826,0.213-4.203,0.635c-1.38,0.424-2.674,1.024-3.876,1.799c-1.201,0.783-2.26,1.687-3.171,2.707
		c-0.913,1.024-1.595,2.14-2.04,3.344c-0.441,1.197-0.597,2.322-0.465,3.369c0.137,1.046,0.522,1.971,1.168,2.771
		c0.647,0.801,1.487,1.43,2.536,1.902c1.047,0.471,2.282,0.701,3.708,0.701c1.38,0,2.772-0.211,4.173-0.635
		c1.408-0.424,2.708-1.023,3.909-1.797c1.201-0.783,2.271-1.695,3.206-2.744c0.928-1.047,1.623-2.17,2.068-3.371
		c0.385-1.041,0.532-2.02,0.465-2.936h0.493L581.088,75.292L581.088,75.292z"/>
	<path d="M635.089,83.625h-2.178v49.725c-0.556-0.541-1.236-0.99-2.052-1.351c-1.07-0.463-2.316-0.698-3.743-0.698
		c-1.425,0-2.826,0.213-4.203,0.637c-1.38,0.422-2.674,1.023-3.876,1.799c-1.201,0.783-2.26,1.686-3.171,2.705
		c-0.913,1.025-1.595,2.141-2.04,3.345c-0.441,1.198-0.597,2.323-0.465,3.37c0.137,1.045,0.522,1.97,1.168,2.77
		c0.647,0.801,1.487,1.43,2.536,1.903c1.047,0.471,2.282,0.702,3.708,0.702c1.38,0,2.772-0.211,4.173-0.637
		c1.408-0.424,2.708-1.022,3.909-1.797c1.201-0.783,2.271-1.695,3.205-2.744c0.929-1.047,1.625-2.17,2.069-3.371
		c0.385-1.039,0.532-2.019,0.465-2.935h0.493L635.089,83.625L635.089,83.625z"/>
	<g>
		<polygon points="635.089,85.958 470.91,60.958 470.91,50.958 635.089,75.958 		"/>
	</g>
	<g>
		<path d="M720.364,140.797c-0.029-0.021-0.054-0.049-0.082-0.068c-0.513-0.338-1.047-0.604-1.604-0.801
			c-0.554-0.199-1.101-0.338-1.633-0.4c-0.537-0.068-0.98-0.123-1.338-0.17c-1.867-0.221-3.549-0.151-5.041,0.201
			c-1.49,0.353-2.752,0.822-3.773,1.4c-1.021,0.625-2.112,1.496-3.269,2.605c-1.16,1.113-2.05,2.519-2.675,4.205
			c-0.133,0.355-0.267,0.77-0.398,1.235c-0.132,0.464-0.235,0.978-0.303,1.535c-0.066,0.556-0.066,1.135,0,1.735
			s0.277,1.195,0.636,1.768c0.313,0.537,0.747,0.98,1.302,1.338c0.558,0.355,1.137,0.65,1.739,0.867
			c0.6,0.227,1.202,0.382,1.802,0.475c0.6,0.086,1.123,0.15,1.568,0.196c3.029,0.267,5.631-0.157,7.813-1.272
			c1.021-0.484,2.157-1.375,3.403-2.664c1.247-1.295,2.18-2.787,2.807-4.479c0.134-0.312,0.267-0.733,0.398-1.267
			c0.135-0.535,0.237-1.104,0.303-1.704c0.007-0.056,0.005-0.11,0.011-0.169h0.511V91.946h-2.177V140.797z M720.285,144.865
			c-0.113,0.558-0.348,1.08-0.702,1.57c-0.359,0.492-0.792,0.936-1.299,1.336c-0.519,0.399-0.994,0.754-1.437,1.068
			c-0.717,0.486-1.372,0.912-1.973,1.27c-0.599,0.354-1.235,0.713-1.905,1.072c-0.665,0.348-1.324,0.705-1.968,1.064
			c-0.646,0.357-1.345,0.709-2.102,1.066c-0.537,0.268-1.117,0.51-1.738,0.729c-0.625,0.229-1.234,0.374-1.837,0.438
			c-0.604,0.066-1.171,0.011-1.7-0.166c-0.536-0.18-0.959-0.539-1.271-1.067c-0.309-0.534-0.414-1.083-0.299-1.64
			c0.107-0.559,0.34-1.078,0.701-1.565c0.352-0.494,0.787-0.937,1.303-1.336c0.508-0.399,1.015-0.761,1.502-1.069
			c1.334-0.887,2.646-1.695,3.939-2.402c0.666-0.357,1.303-0.711,1.906-1.069c0.6-0.354,1.276-0.71,2.03-1.065
			c0.537-0.267,1.118-0.513,1.735-0.736c0.625-0.225,1.236-0.355,1.839-0.399c0.604-0.044,1.158,0.021,1.67,0.202
			c0.513,0.178,0.946,0.536,1.304,1.066C720.298,143.77,720.396,144.311,720.285,144.865z"/>
		<path d="M737.195,138.126c-0.641-0.62-1.432-0.931-2.372-0.931c-0.939,0-1.732,0.311-2.374,0.931
			c-0.641,0.618-0.96,1.379-0.96,2.272c0,0.898,0.319,1.668,0.96,2.313c0.642,0.641,1.433,0.958,2.374,0.958
			c0.94,0,1.731-0.317,2.372-0.958c0.64-0.645,0.966-1.413,0.966-2.313C738.161,139.505,737.835,138.744,737.195,138.126z"/>
	</g>
	<rect x="230.514" y="147.188" width="29.375" height="2.188"/>
	<rect x="696.493" y="147.188" width="29.374" height="2.188"/>
</g>
</svg>
