<?xml version="1.0" encoding="utf-8"?>
<!-- Generator: Adobe Illustrator 23.0.0, SVG Export Plug-In . SVG Version: 6.00 Build 0)  -->
<svg version="1.1" id="Layer_1" xmlns="http://www.w3.org/2000/svg" xmlns:xlink="http://www.w3.org/1999/xlink" x="0px" y="0px"
	 width="728.7px" height="91px" viewBox="0 0 728.7 91" style="enable-background:new 0 0 728.7 91;" xml:space="preserve">
<g>
	<g>
		<path d="M728.6,91H0V0h728.7L728.6,91L728.6,91z M2.4,88.6h723.7V2.4H2.4V88.6z"/>
		<rect x="89.8" y="1.2" width="2.5" height="88.6"/>
		<rect x="182.4" y="1.2" width="2.5" height="88.6"/>
		<rect x="274.9" y="1.2" width="2.5" height="88.6"/>
		<rect x="367.5" y="1.2" width="2.5" height="88.6"/>
		<rect x="460" y="1.2" width="2.5" height="88.6"/>
		<rect x="553.6" y="1.2" width="2.5" height="88.6"/>
		<rect x="639.6" y="1.2" width="2.5" height="88.6"/>
	</g>
</g>
<g id="bar_1">
	<path d="M50.4,50.5v3.7c8.1,0.5,12.9,3.2,12.9,7.7c0,5-5.8,7.8-15.6,7.8s-15.5-2.8-15.5-7.8c0-4.6,4.8-7.3,13-7.8v-3.7H27.3v-4.1
		h40.9v4.1L50.4,50.5L50.4,50.5z M46.3,43.1H30.8V25.9h4.9v4.4h5.6v-4.4h4.9L46.3,43.1L46.3,43.1z M41.4,34.3h-5.6v4.6h5.6V34.3z
		 M47.7,58c-6.7,0-10.3,1.4-10.3,4s3.7,4,10.3,4c6.7,0,10.4-1.4,10.4-4S54.4,58,47.7,58z M64.7,43.1H49.3V25.9h4.9v4.4h5.6v-4.4h4.9
		V43.1z M59.8,34.3h-5.6v4.6h5.6V34.3z"/>
	<path d="M142,50.5v3.7c8.1,0.5,12.9,3.2,12.9,7.7c0,5-5.8,7.8-15.6,7.8s-15.5-2.8-15.5-7.8c0-4.6,4.8-7.3,13-7.8v-3.7h-17.9v-4.1
		h40.9v4.1L142,50.5L142,50.5z M137.9,43.1h-15.5V25.9h4.9v4.4h5.6v-4.4h4.9v17.2H137.9z M133,34.3h-5.6v4.6h5.6V34.3z M139.3,58
		c-6.7,0-10.3,1.4-10.3,4s3.7,4,10.3,4c6.7,0,10.4-1.4,10.4-4S146,58,139.3,58z M156.3,43.1h-15.4V25.9h4.9v4.4h5.6v-4.4h4.9V43.1z
		 M151.4,34.3h-5.6v4.6h5.6V34.3z"/>
	<path d="M233.6,50.5v3.7c8.1,0.5,12.9,3.2,12.9,7.7c0,5-5.8,7.8-15.6,7.8s-15.5-2.8-15.5-7.8c0-4.6,4.8-7.3,13-7.8v-3.7h-17.9v-4.1
		h40.9v4.1L233.6,50.5L233.6,50.5z M229.5,43.1H214V25.9h4.9v4.4h5.6v-4.4h4.9v17.2H229.5z M224.6,34.3H219v4.6h5.6V34.3z M230.9,58
		c-6.7,0-10.3,1.4-10.3,4s3.7,4,10.3,4c6.7,0,10.4-1.4,10.4-4S237.6,58,230.9,58z M247.9,43.1h-15.4V25.9h4.9v4.4h5.6v-4.4h4.9V43.1
		z M243,34.3h-5.6v4.6h5.6V34.3z"/>
	<path d="M325.1,50.5v3.7c8.1,0.5,12.9,3.2,12.9,7.7c0,5-5.8,7.8-15.6,7.8c-9.8,0-15.5-2.8-15.5-7.8c0-4.6,4.8-7.3,13-7.8v-3.7H302
		v-4.1h40.9v4.1L325.1,50.5L325.1,50.5z M321,43.1h-15.5V25.9h4.9v4.4h5.6v-4.4h4.9v17.2H321z M316.1,34.3h-5.6v4.6h5.6V34.3z
		 M322.4,58c-6.7,0-10.3,1.4-10.3,4s3.7,4,10.3,4c6.7,0,10.4-1.4,10.4-4S329.1,58,322.4,58z M339.4,43.1H324V25.9h4.9v4.4h5.6v-4.4
		h4.9V43.1z M334.5,34.3h-5.6v4.6h5.6V34.3z"/>
	<g>
		<path d="M410.9,24.5v45.3h-5.2V45.1h-9.5v13.7H375V28.1h5.1v11.4h11V28.1h5.1v12.8h9.5V24.5H410.9z M391.2,43.5h-11v11.1h11V43.5z
			"/>
		<path d="M456.3,59.7V64h-40.9v-4.3H456.3z M452.3,50.9c-7.4-1.5-13.7-6.2-16.7-12.4c-3,6.2-9.3,10.9-16.7,12.4l-2.2-4.3
			c8.9-1.7,16.2-8.6,16.2-15.8v-3.4h5.5v3.4c0,7.2,7.3,14.2,16.2,15.8L452.3,50.9z"/>
	</g>
	<g>
		<path d="M495.6,48.6c-9.4,1.7-19.9,1.9-27.5,1.9l-0.6-4.1c3.3,0,7.1,0,11.2-0.1v-3.7c-5.3-0.7-8.7-3.9-8.7-8.2
			c0-5.1,4.6-8.5,11.2-8.5s11.2,3.4,11.2,8.5c0,4.3-3.4,7.5-8.5,8.2v3.5c3.9-0.2,7.8-0.5,11.4-1L495.6,48.6z M499.3,54.8
			c0,4.6,3,8.8,8.8,10.7l-2.5,3.8c-4.4-1.5-7.3-4.3-8.9-7.8c-1.5,3.5-4.2,6.6-8.3,8.2c-4.2-1.5-6.9-4.6-8.3-8.1
			c-1.6,3.5-4.5,6.3-8.8,7.7l-2.5-3.8c5.8-1.9,8.7-6.3,8.7-10.7v-1h5v1c0,3.6,1.8,7.6,5.7,9.9c4-2.5,5.9-6.4,5.9-9.9v-1h5.1
			L499.3,54.8L499.3,54.8z M481.2,39c3.8,0,6.4-1.9,6.4-4.7c0-2.9-2.5-4.7-6.4-4.7s-6.4,1.8-6.4,4.7C474.8,37.2,477.4,39,481.2,39z
			 M509.2,36.2v4.3H503V52h-5.2V24.6h5.2v11.6H509.2z"/>
		<path d="M549.1,24.5v45.3h-5.2V45.6h-8.8c-0.6,8.8-5.2,14.2-11.4,14.2c-6.7,0-11.4-6.2-11.4-16c0-9.7,4.8-15.9,11.4-15.9
			c6.1,0,10.7,5.2,11.4,13.5h8.8V24.5H549.1z M530.3,43.8c0-7-2.7-11.3-6.6-11.3c-3.9,0-6.5,4.3-6.5,11.3c0,7.2,2.6,11.4,6.5,11.4
			C527.7,55.1,530.3,50.9,530.3,43.8z"/>
	</g>
	<path d="M617.8,60v4.2h-40.9V60h9.6V48.2c-3.6-2-5.8-5.3-5.8-9.3c0-7.2,7-11.8,16.6-11.8s16.6,4.6,16.6,11.8c0,4-2.1,7.2-5.8,9.3
		V60H617.8z M585.7,39c0,4.8,4.8,7.8,11.6,7.8s11.6-3,11.6-7.8s-4.8-7.8-11.6-7.8C590.4,31.2,585.7,34.2,585.7,39z M591.6,60H603
		v-9.9c-1.8,0.5-3.7,0.6-5.7,0.6s-4-0.2-5.7-0.6V60z"/>
	<g>
	</g>
</g>
</svg>
